M48
;Layer_Color=9474304
;FILE_FORMAT=2:5
INCH,LZ
;TYPE=PLATED
T1F00S00C0.01181
T2F00S00C0.03323
T4F00S00C0.20079
;TYPE=NON_PLATED
T5F00S00C0.04000
%
T01
X00087Y00112
X00118Y00198
X00124Y00265
X00169Y00297
X0023654Y0028768
X00289Y00299
X0035237Y0028663
X00367Y00337
X00358Y00377
X0023821Y003878
X00183Y0038
X0021741Y0020081
X0025703Y0018398
X00411Y00179
X0047007Y00237
X00499Y00259
X0055617Y0023983
X00586Y00243
X00526Y00209
X0054753Y0032597
X0062581Y0035581
X00658Y0039
X0073381Y00384
X006975Y0033056
X00659Y0027
X00828Y0027765
X0084Y00235
X00842Y0035
X0103372Y0039272
X01063Y00313
X01034Y00267
X00361Y00049
X00311Y00043
X00313Y00431
X00318Y00523
X0028693Y0052293
X002526Y0052783
X0024Y00467
X00175Y00499
X001155Y00543
X00369Y00522
X0055Y00505
X0054847Y0047404
X00547Y00443
X006965Y0049946
X0073819Y0048774
X00736Y00554
X00684Y00581
X00813Y00531
X00831Y00423
X01014Y00494
T02
X00051Y00481
Y0055974
T04
X00663Y00121
T05
X00128Y00051
Y00131
X00328Y00091
M30
