G04*
G04 #@! TF.GenerationSoftware,Altium Limited,Altium Designer,22.6.1 (34)*
G04*
G04 Layer_Color=16711935*
%FSLAX25Y25*%
%MOIN*%
G70*
G04*
G04 #@! TF.SameCoordinates,96458179-A28E-47A4-AC93-062C7FCE65E1*
G04*
G04*
G04 #@! TF.FilePolarity,Positive*
G04*
G01*
G75*
%ADD52C,0.00100*%
%ADD53C,0.00394*%
%ADD54C,0.02000*%
D52*
X91131Y8444D02*
Y49744D01*
X114731D01*
Y8444D02*
Y49744D01*
X91131Y8444D02*
X114731D01*
X91131Y8450D02*
Y49750D01*
Y8450D02*
X114731D01*
Y49750D01*
X91131D02*
X114731D01*
D53*
X19894Y50913D02*
G03*
X19894Y50913I-1969J0D01*
G01*
X51657Y54531D02*
X58743D01*
X51657Y58469D02*
X58743D01*
Y54531D02*
Y58469D01*
X51657Y54531D02*
Y58469D01*
X14382Y26897D02*
Y54456D01*
X41941Y26897D02*
Y54456D01*
X14382D02*
X41941D01*
X14382Y26897D02*
X41941D01*
X51508Y27861D02*
X56380Y22990D01*
X60139Y36492D02*
X65010Y31620D01*
X56380Y22990D02*
X65010Y31620D01*
X51508Y27861D02*
X60139Y36492D01*
X72361D02*
X80992Y27861D01*
X67490Y31620D02*
X76120Y22990D01*
X80992Y27861D01*
X67490Y31620D02*
X72361Y36492D01*
X86931Y44246D02*
Y49954D01*
X78269Y44246D02*
Y49954D01*
Y44246D02*
X86931D01*
X78269Y49954D02*
X86931D01*
D54*
X100900Y17284D02*
G03*
X100900Y17284I-1500J0D01*
G01*
X100900Y40911D02*
G03*
X100900Y40911I-1500J0D01*
G01*
M02*
