G04*
G04 #@! TF.GenerationSoftware,Altium Limited,Altium Designer,22.6.1 (34)*
G04*
G04 Layer_Color=32896*
%FSLAX25Y25*%
%MOIN*%
G70*
G04*
G04 #@! TF.SameCoordinates,96458179-A28E-47A4-AC93-062C7FCE65E1*
G04*
G04*
G04 #@! TF.FilePolarity,Positive*
G04*
G01*
G75*
%ADD13C,0.00787*%
G36*
X54925Y53703D02*
X54952Y53701D01*
X54985Y53699D01*
X55021Y53693D01*
X55063Y53688D01*
X55111Y53681D01*
X55160Y53670D01*
X55211Y53657D01*
X55263Y53642D01*
X55316Y53623D01*
X55369Y53601D01*
X55423Y53575D01*
X55475Y53546D01*
X55524Y53512D01*
X55527Y53510D01*
X55535Y53502D01*
X55549Y53491D01*
X55566Y53475D01*
X55587Y53457D01*
X55611Y53431D01*
X55637Y53404D01*
X55666Y53371D01*
X55695Y53335D01*
X55726Y53295D01*
X55755Y53249D01*
X55784Y53202D01*
X55813Y53149D01*
X55839Y53093D01*
X55864Y53033D01*
X55884Y52969D01*
X55556Y52893D01*
X55555Y52896D01*
X55553Y52905D01*
X55547Y52918D01*
X55540Y52938D01*
X55531Y52960D01*
X55520Y52986D01*
X55505Y53015D01*
X55491Y53046D01*
X55475Y53078D01*
X55454Y53111D01*
X55435Y53144D01*
X55411Y53178D01*
X55385Y53209D01*
X55360Y53240D01*
X55331Y53268D01*
X55300Y53293D01*
X55298Y53295D01*
X55292Y53299D01*
X55283Y53304D01*
X55271Y53313D01*
X55254Y53322D01*
X55234Y53333D01*
X55211Y53344D01*
X55185Y53357D01*
X55156Y53368D01*
X55125Y53379D01*
X55090Y53390D01*
X55054Y53399D01*
X55014Y53408D01*
X54972Y53413D01*
X54928Y53417D01*
X54881Y53419D01*
X54854D01*
X54834Y53417D01*
X54808Y53415D01*
X54779Y53411D01*
X54747Y53408D01*
X54712Y53400D01*
X54674Y53393D01*
X54636Y53384D01*
X54595Y53373D01*
X54554Y53360D01*
X54514Y53344D01*
X54474Y53324D01*
X54434Y53304D01*
X54395Y53278D01*
X54393Y53277D01*
X54386Y53273D01*
X54377Y53264D01*
X54364Y53253D01*
X54348Y53238D01*
X54330Y53222D01*
X54310Y53202D01*
X54288Y53180D01*
X54266Y53155D01*
X54242Y53127D01*
X54220Y53096D01*
X54199Y53062D01*
X54177Y53027D01*
X54157Y52989D01*
X54139Y52949D01*
X54122Y52905D01*
Y52904D01*
X54119Y52895D01*
X54115Y52882D01*
X54110Y52865D01*
X54104Y52844D01*
X54097Y52818D01*
X54091Y52789D01*
X54084Y52756D01*
X54077Y52722D01*
X54070Y52683D01*
X54062Y52643D01*
X54057Y52601D01*
X54048Y52514D01*
X54046Y52469D01*
X54044Y52421D01*
Y52418D01*
Y52407D01*
Y52390D01*
X54046Y52367D01*
X54048Y52339D01*
X54049Y52307D01*
X54051Y52270D01*
X54055Y52232D01*
X54060Y52188D01*
X54066Y52143D01*
X54084Y52050D01*
X54093Y52001D01*
X54106Y51954D01*
X54120Y51906D01*
X54137Y51861D01*
X54139Y51859D01*
X54140Y51850D01*
X54146Y51839D01*
X54155Y51823D01*
X54164Y51802D01*
X54177Y51779D01*
X54191Y51753D01*
X54208Y51726D01*
X54228Y51699D01*
X54250Y51670D01*
X54273Y51639D01*
X54299Y51610D01*
X54328Y51581D01*
X54359Y51553D01*
X54392Y51528D01*
X54428Y51504D01*
X54430Y51502D01*
X54437Y51499D01*
X54448Y51493D01*
X54463Y51486D01*
X54481Y51477D01*
X54503Y51466D01*
X54528Y51457D01*
X54555Y51446D01*
X54586Y51433D01*
X54619Y51424D01*
X54655Y51413D01*
X54692Y51404D01*
X54732Y51397D01*
X54772Y51391D01*
X54814Y51388D01*
X54856Y51386D01*
X54868D01*
X54883Y51388D01*
X54903D01*
X54927Y51391D01*
X54954Y51395D01*
X54987Y51398D01*
X55019Y51406D01*
X55056Y51415D01*
X55094Y51426D01*
X55134Y51438D01*
X55174Y51453D01*
X55214Y51471D01*
X55254Y51493D01*
X55292Y51519D01*
X55331Y51546D01*
X55332Y51548D01*
X55340Y51553D01*
X55349Y51562D01*
X55362Y51577D01*
X55378Y51593D01*
X55396Y51613D01*
X55416Y51639D01*
X55436Y51666D01*
X55458Y51699D01*
X55480Y51733D01*
X55504Y51773D01*
X55524Y51817D01*
X55546Y51863D01*
X55564Y51913D01*
X55580Y51966D01*
X55595Y52025D01*
X55928Y51941D01*
Y51939D01*
X55926Y51935D01*
X55924Y51930D01*
X55922Y51923D01*
X55920Y51913D01*
X55917Y51901D01*
X55908Y51873D01*
X55895Y51839D01*
X55880Y51801D01*
X55862Y51757D01*
X55840Y51710D01*
X55817Y51659D01*
X55789Y51608D01*
X55758Y51557D01*
X55724Y51504D01*
X55686Y51453D01*
X55644Y51404D01*
X55598Y51358D01*
X55549Y51315D01*
X55546Y51313D01*
X55536Y51306D01*
X55522Y51295D01*
X55500Y51282D01*
X55475Y51266D01*
X55442Y51247D01*
X55405Y51227D01*
X55364Y51207D01*
X55318Y51187D01*
X55267Y51167D01*
X55212Y51149D01*
X55154Y51133D01*
X55090Y51120D01*
X55025Y51109D01*
X54956Y51102D01*
X54883Y51100D01*
X54856D01*
X54843Y51102D01*
X54816D01*
X54781Y51105D01*
X54741Y51109D01*
X54695Y51115D01*
X54648Y51120D01*
X54595Y51129D01*
X54543Y51140D01*
X54486Y51155D01*
X54432Y51169D01*
X54377Y51189D01*
X54322Y51211D01*
X54270Y51236D01*
X54220Y51266D01*
X54217Y51267D01*
X54210Y51273D01*
X54197Y51284D01*
X54179Y51297D01*
X54157Y51313D01*
X54133Y51335D01*
X54106Y51358D01*
X54077Y51388D01*
X54046Y51420D01*
X54015Y51455D01*
X53982Y51495D01*
X53949Y51537D01*
X53918Y51584D01*
X53887Y51633D01*
X53858Y51688D01*
X53833Y51744D01*
Y51746D01*
X53831Y51748D01*
X53827Y51759D01*
X53820Y51775D01*
X53813Y51799D01*
X53802Y51828D01*
X53791Y51863D01*
X53778Y51903D01*
X53767Y51946D01*
X53755Y51995D01*
X53742Y52048D01*
X53731Y52103D01*
X53720Y52163D01*
X53713Y52223D01*
X53706Y52287D01*
X53702Y52352D01*
X53700Y52420D01*
Y52421D01*
Y52425D01*
Y52430D01*
Y52438D01*
Y52447D01*
X53702Y52458D01*
Y52485D01*
X53706Y52520D01*
X53707Y52560D01*
X53713Y52605D01*
X53718Y52654D01*
X53727Y52705D01*
X53736Y52760D01*
X53749Y52818D01*
X53764Y52876D01*
X53780Y52935D01*
X53800Y52993D01*
X53824Y53049D01*
X53849Y53106D01*
X53851Y53109D01*
X53856Y53118D01*
X53866Y53133D01*
X53877Y53155D01*
X53893Y53178D01*
X53911Y53206D01*
X53935Y53238D01*
X53960Y53271D01*
X53988Y53306D01*
X54020Y53344D01*
X54055Y53381D01*
X54093Y53417D01*
X54135Y53453D01*
X54179Y53488D01*
X54226Y53521D01*
X54277Y53552D01*
X54281Y53553D01*
X54290Y53559D01*
X54304Y53566D01*
X54326Y53575D01*
X54352Y53588D01*
X54382Y53601D01*
X54419Y53613D01*
X54457Y53628D01*
X54501Y53642D01*
X54548Y53655D01*
X54599Y53670D01*
X54652Y53681D01*
X54708Y53690D01*
X54766Y53697D01*
X54827Y53703D01*
X54888Y53704D01*
X54914D01*
X54925Y53703D01*
D02*
G37*
G36*
X57063Y53668D02*
X57087Y53666D01*
X57114Y53664D01*
X57147Y53659D01*
X57183Y53654D01*
X57222Y53646D01*
X57264Y53635D01*
X57307Y53623D01*
X57351Y53608D01*
X57395Y53588D01*
X57438Y53566D01*
X57482Y53541D01*
X57524Y53512D01*
X57562Y53477D01*
X57564Y53475D01*
X57571Y53468D01*
X57580Y53457D01*
X57593Y53442D01*
X57609Y53424D01*
X57626Y53402D01*
X57644Y53377D01*
X57664Y53348D01*
X57682Y53315D01*
X57700Y53278D01*
X57717Y53240D01*
X57733Y53200D01*
X57746Y53157D01*
X57755Y53109D01*
X57762Y53062D01*
X57764Y53011D01*
Y53009D01*
Y53004D01*
Y52995D01*
X57762Y52982D01*
X57760Y52967D01*
X57759Y52949D01*
X57757Y52929D01*
X57753Y52907D01*
X57742Y52860D01*
X57726Y52809D01*
X57715Y52784D01*
X57702Y52758D01*
X57688Y52732D01*
X57671Y52707D01*
X57669Y52705D01*
X57668Y52702D01*
X57662Y52694D01*
X57653Y52685D01*
X57644Y52674D01*
X57631Y52663D01*
X57618Y52649D01*
X57602Y52634D01*
X57582Y52618D01*
X57562Y52601D01*
X57538Y52585D01*
X57515Y52569D01*
X57486Y52552D01*
X57456Y52536D01*
X57425Y52521D01*
X57391Y52507D01*
X57393D01*
X57402Y52503D01*
X57413Y52500D01*
X57429Y52492D01*
X57449Y52485D01*
X57471Y52474D01*
X57497Y52463D01*
X57522Y52449D01*
X57551Y52432D01*
X57580Y52414D01*
X57609Y52394D01*
X57639Y52372D01*
X57668Y52349D01*
X57695Y52321D01*
X57722Y52294D01*
X57746Y52263D01*
X57748Y52261D01*
X57751Y52256D01*
X57757Y52247D01*
X57766Y52234D01*
X57775Y52218D01*
X57784Y52197D01*
X57795Y52176D01*
X57808Y52150D01*
X57819Y52121D01*
X57830Y52092D01*
X57839Y52057D01*
X57850Y52023D01*
X57857Y51985D01*
X57862Y51946D01*
X57866Y51904D01*
X57868Y51861D01*
Y51857D01*
Y51846D01*
X57866Y51830D01*
X57864Y51806D01*
X57860Y51779D01*
X57855Y51748D01*
X57848Y51711D01*
X57839Y51671D01*
X57828Y51630D01*
X57811Y51586D01*
X57793Y51542D01*
X57771Y51497D01*
X57744Y51449D01*
X57715Y51406D01*
X57679Y51360D01*
X57639Y51318D01*
X57637Y51317D01*
X57628Y51309D01*
X57615Y51298D01*
X57597Y51284D01*
X57575Y51267D01*
X57546Y51249D01*
X57515Y51229D01*
X57478Y51209D01*
X57437Y51189D01*
X57391Y51169D01*
X57342Y51151D01*
X57289Y51135D01*
X57231Y51120D01*
X57171Y51109D01*
X57105Y51102D01*
X57038Y51100D01*
X57021D01*
X57002Y51102D01*
X56976Y51104D01*
X56945Y51107D01*
X56909Y51111D01*
X56867Y51118D01*
X56823Y51127D01*
X56776Y51140D01*
X56727Y51155D01*
X56678Y51171D01*
X56627Y51193D01*
X56576Y51218D01*
X56526Y51247D01*
X56481Y51282D01*
X56436Y51320D01*
X56434Y51322D01*
X56426Y51331D01*
X56414Y51342D01*
X56401Y51360D01*
X56383Y51382D01*
X56363Y51408D01*
X56343Y51437D01*
X56323Y51471D01*
X56301Y51509D01*
X56281Y51551D01*
X56261Y51597D01*
X56244Y51644D01*
X56230Y51697D01*
X56217Y51752D01*
X56210Y51810D01*
X56208Y51870D01*
Y51873D01*
Y51881D01*
Y51894D01*
X56210Y51912D01*
X56212Y51932D01*
X56215Y51957D01*
X56219Y51985D01*
X56224Y52014D01*
X56230Y52045D01*
X56239Y52079D01*
X56248Y52112D01*
X56261Y52147D01*
X56275Y52181D01*
X56292Y52216D01*
X56310Y52248D01*
X56332Y52281D01*
X56334Y52283D01*
X56337Y52289D01*
X56344Y52298D01*
X56355Y52308D01*
X56368Y52321D01*
X56384Y52338D01*
X56403Y52354D01*
X56423Y52372D01*
X56448Y52390D01*
X56474Y52409D01*
X56503Y52429D01*
X56536Y52447D01*
X56570Y52463D01*
X56607Y52480D01*
X56647Y52494D01*
X56688Y52507D01*
X56687D01*
X56679Y52510D01*
X56670Y52514D01*
X56657Y52520D01*
X56641Y52527D01*
X56623Y52536D01*
X56603Y52547D01*
X56581Y52558D01*
X56534Y52587D01*
X56486Y52622D01*
X56441Y52662D01*
X56421Y52683D01*
X56403Y52707D01*
X56401Y52709D01*
X56399Y52713D01*
X56394Y52720D01*
X56388Y52731D01*
X56381Y52744D01*
X56374Y52758D01*
X56365Y52776D01*
X56357Y52796D01*
X56348Y52818D01*
X56339Y52842D01*
X56332Y52867D01*
X56324Y52895D01*
X56314Y52955D01*
X56312Y52987D01*
X56310Y53020D01*
Y53024D01*
Y53033D01*
X56312Y53047D01*
X56314Y53066D01*
X56315Y53089D01*
X56321Y53117D01*
X56326Y53148D01*
X56335Y53180D01*
X56344Y53217D01*
X56357Y53253D01*
X56374Y53291D01*
X56394Y53331D01*
X56415Y53369D01*
X56441Y53410D01*
X56472Y53446D01*
X56506Y53482D01*
X56508Y53484D01*
X56516Y53490D01*
X56526Y53501D01*
X56543Y53512D01*
X56563Y53526D01*
X56586Y53542D01*
X56614Y53559D01*
X56647Y53577D01*
X56681Y53593D01*
X56721Y53610D01*
X56765Y53626D01*
X56812Y53641D01*
X56861Y53654D01*
X56916Y53663D01*
X56972Y53668D01*
X57032Y53670D01*
X57047D01*
X57063Y53668D01*
D02*
G37*
G36*
X76382Y54598D02*
X76410D01*
X76444Y54594D01*
X76484Y54591D01*
X76530Y54585D01*
X76577Y54580D01*
X76630Y54571D01*
X76683Y54560D01*
X76739Y54545D01*
X76794Y54531D01*
X76848Y54511D01*
X76903Y54489D01*
X76955Y54463D01*
X77005Y54434D01*
X77008Y54433D01*
X77016Y54427D01*
X77028Y54416D01*
X77047Y54403D01*
X77068Y54387D01*
X77092Y54365D01*
X77119Y54342D01*
X77148Y54312D01*
X77179Y54280D01*
X77210Y54245D01*
X77243Y54205D01*
X77276Y54163D01*
X77307Y54116D01*
X77338Y54067D01*
X77367Y54012D01*
X77392Y53956D01*
Y53954D01*
X77394Y53952D01*
X77398Y53941D01*
X77405Y53925D01*
X77412Y53901D01*
X77423Y53872D01*
X77434Y53837D01*
X77447Y53797D01*
X77458Y53754D01*
X77471Y53705D01*
X77483Y53652D01*
X77494Y53597D01*
X77505Y53537D01*
X77513Y53477D01*
X77520Y53413D01*
X77523Y53348D01*
X77525Y53281D01*
Y53279D01*
Y53275D01*
Y53270D01*
Y53262D01*
Y53253D01*
X77523Y53242D01*
Y53215D01*
X77520Y53180D01*
X77518Y53140D01*
X77513Y53095D01*
X77507Y53046D01*
X77498Y52995D01*
X77489Y52940D01*
X77476Y52882D01*
X77461Y52824D01*
X77445Y52765D01*
X77425Y52707D01*
X77401Y52651D01*
X77376Y52594D01*
X77374Y52591D01*
X77369Y52582D01*
X77360Y52567D01*
X77349Y52545D01*
X77332Y52522D01*
X77314Y52494D01*
X77290Y52461D01*
X77265Y52429D01*
X77238Y52394D01*
X77205Y52356D01*
X77170Y52320D01*
X77132Y52283D01*
X77090Y52247D01*
X77047Y52212D01*
X76999Y52179D01*
X76948Y52148D01*
X76945Y52147D01*
X76935Y52141D01*
X76921Y52134D01*
X76899Y52125D01*
X76874Y52112D01*
X76843Y52099D01*
X76806Y52087D01*
X76768Y52072D01*
X76724Y52057D01*
X76677Y52045D01*
X76626Y52030D01*
X76573Y52019D01*
X76517Y52010D01*
X76459Y52003D01*
X76399Y51997D01*
X76337Y51996D01*
X76311D01*
X76300Y51997D01*
X76273Y51999D01*
X76240Y52001D01*
X76204Y52007D01*
X76162Y52012D01*
X76115Y52019D01*
X76066Y52030D01*
X76015Y52043D01*
X75962Y52057D01*
X75909Y52078D01*
X75856Y52099D01*
X75802Y52125D01*
X75751Y52154D01*
X75702Y52188D01*
X75698Y52190D01*
X75691Y52198D01*
X75676Y52209D01*
X75660Y52225D01*
X75638Y52243D01*
X75614Y52269D01*
X75589Y52296D01*
X75560Y52329D01*
X75530Y52365D01*
X75499Y52405D01*
X75470Y52451D01*
X75441Y52498D01*
X75412Y52551D01*
X75387Y52607D01*
X75361Y52667D01*
X75341Y52731D01*
X75669Y52807D01*
X75671Y52804D01*
X75672Y52795D01*
X75678Y52782D01*
X75685Y52762D01*
X75694Y52740D01*
X75705Y52715D01*
X75720Y52685D01*
X75734Y52654D01*
X75751Y52622D01*
X75771Y52589D01*
X75791Y52556D01*
X75814Y52522D01*
X75840Y52491D01*
X75865Y52460D01*
X75894Y52432D01*
X75925Y52407D01*
X75927Y52405D01*
X75933Y52401D01*
X75942Y52396D01*
X75955Y52387D01*
X75971Y52378D01*
X75991Y52367D01*
X76015Y52356D01*
X76040Y52343D01*
X76069Y52332D01*
X76100Y52321D01*
X76135Y52310D01*
X76171Y52301D01*
X76211Y52292D01*
X76253Y52287D01*
X76297Y52283D01*
X76344Y52281D01*
X76371D01*
X76391Y52283D01*
X76417Y52285D01*
X76446Y52289D01*
X76479Y52292D01*
X76513Y52299D01*
X76552Y52307D01*
X76590Y52316D01*
X76630Y52327D01*
X76672Y52340D01*
X76712Y52356D01*
X76752Y52376D01*
X76792Y52396D01*
X76830Y52421D01*
X76832Y52423D01*
X76839Y52427D01*
X76848Y52436D01*
X76861Y52447D01*
X76877Y52461D01*
X76895Y52478D01*
X76916Y52498D01*
X76937Y52520D01*
X76959Y52545D01*
X76983Y52573D01*
X77005Y52604D01*
X77026Y52638D01*
X77048Y52673D01*
X77068Y52711D01*
X77087Y52751D01*
X77103Y52795D01*
Y52796D01*
X77107Y52806D01*
X77110Y52818D01*
X77116Y52835D01*
X77121Y52856D01*
X77128Y52882D01*
X77134Y52911D01*
X77141Y52944D01*
X77148Y52978D01*
X77156Y53017D01*
X77163Y53057D01*
X77169Y53098D01*
X77178Y53186D01*
X77179Y53231D01*
X77181Y53279D01*
Y53282D01*
Y53293D01*
Y53310D01*
X77179Y53333D01*
X77178Y53361D01*
X77176Y53393D01*
X77174Y53430D01*
X77170Y53468D01*
X77165Y53512D01*
X77159Y53557D01*
X77141Y53650D01*
X77132Y53699D01*
X77119Y53746D01*
X77105Y53794D01*
X77088Y53839D01*
X77087Y53841D01*
X77085Y53850D01*
X77079Y53861D01*
X77070Y53878D01*
X77061Y53898D01*
X77048Y53921D01*
X77034Y53947D01*
X77017Y53974D01*
X76997Y54001D01*
X76976Y54030D01*
X76952Y54061D01*
X76926Y54090D01*
X76897Y54119D01*
X76866Y54147D01*
X76834Y54172D01*
X76797Y54196D01*
X76795Y54198D01*
X76788Y54201D01*
X76777Y54207D01*
X76763Y54214D01*
X76744Y54223D01*
X76723Y54234D01*
X76697Y54243D01*
X76670Y54254D01*
X76639Y54267D01*
X76606Y54276D01*
X76570Y54287D01*
X76533Y54296D01*
X76493Y54303D01*
X76453Y54309D01*
X76411Y54312D01*
X76370Y54314D01*
X76357D01*
X76342Y54312D01*
X76322D01*
X76298Y54309D01*
X76271Y54305D01*
X76239Y54302D01*
X76206Y54294D01*
X76169Y54285D01*
X76131Y54274D01*
X76091Y54261D01*
X76051Y54247D01*
X76011Y54229D01*
X75971Y54207D01*
X75933Y54181D01*
X75894Y54154D01*
X75893Y54152D01*
X75885Y54147D01*
X75876Y54138D01*
X75863Y54123D01*
X75847Y54107D01*
X75829Y54087D01*
X75809Y54061D01*
X75789Y54034D01*
X75767Y54001D01*
X75745Y53967D01*
X75722Y53927D01*
X75702Y53883D01*
X75680Y53837D01*
X75661Y53786D01*
X75645Y53734D01*
X75631Y53675D01*
X75297Y53759D01*
Y53761D01*
X75299Y53765D01*
X75301Y53770D01*
X75303Y53777D01*
X75305Y53786D01*
X75308Y53799D01*
X75318Y53826D01*
X75330Y53861D01*
X75345Y53899D01*
X75363Y53943D01*
X75385Y53990D01*
X75409Y54041D01*
X75436Y54092D01*
X75467Y54143D01*
X75501Y54196D01*
X75540Y54247D01*
X75581Y54296D01*
X75627Y54342D01*
X75676Y54385D01*
X75680Y54387D01*
X75689Y54394D01*
X75703Y54405D01*
X75725Y54418D01*
X75751Y54434D01*
X75783Y54453D01*
X75820Y54473D01*
X75862Y54493D01*
X75907Y54513D01*
X75958Y54533D01*
X76013Y54551D01*
X76071Y54567D01*
X76135Y54580D01*
X76200Y54591D01*
X76269Y54598D01*
X76342Y54600D01*
X76370D01*
X76382Y54598D01*
D02*
G37*
G36*
X75052Y54556D02*
Y54553D01*
Y54547D01*
Y54540D01*
Y54529D01*
X75050Y54518D01*
X75048Y54489D01*
X75045Y54458D01*
X75039Y54422D01*
X75030Y54383D01*
X75017Y54345D01*
Y54343D01*
X75014Y54338D01*
X75010Y54329D01*
X75005Y54316D01*
X74999Y54300D01*
X74990Y54282D01*
X74979Y54261D01*
X74968Y54240D01*
X74955Y54214D01*
X74939Y54189D01*
X74904Y54132D01*
X74862Y54072D01*
X74813Y54010D01*
X74812Y54009D01*
X74806Y54003D01*
X74799Y53994D01*
X74788Y53981D01*
X74773Y53965D01*
X74755Y53947D01*
X74735Y53925D01*
X74710Y53901D01*
X74682Y53874D01*
X74653Y53845D01*
X74620Y53814D01*
X74584Y53779D01*
X74544Y53745D01*
X74502Y53708D01*
X74457Y53670D01*
X74409Y53630D01*
X74408Y53628D01*
X74404Y53626D01*
X74398Y53621D01*
X74391Y53615D01*
X74382Y53606D01*
X74371Y53597D01*
X74344Y53574D01*
X74309Y53546D01*
X74273Y53512D01*
X74231Y53475D01*
X74187Y53435D01*
X74140Y53393D01*
X74094Y53350D01*
X74047Y53306D01*
X74003Y53260D01*
X73960Y53217D01*
X73922Y53175D01*
X73885Y53133D01*
X73856Y53095D01*
X73854Y53093D01*
X73851Y53086D01*
X73843Y53075D01*
X73832Y53062D01*
X73822Y53044D01*
X73811Y53024D01*
X73796Y53000D01*
X73783Y52975D01*
X73770Y52947D01*
X73756Y52918D01*
X73732Y52855D01*
X73723Y52822D01*
X73716Y52789D01*
X73712Y52756D01*
X73711Y52724D01*
Y52722D01*
Y52715D01*
Y52705D01*
X73712Y52693D01*
X73714Y52676D01*
X73718Y52658D01*
X73721Y52638D01*
X73727Y52616D01*
X73734Y52592D01*
X73743Y52567D01*
X73754Y52542D01*
X73767Y52516D01*
X73782Y52489D01*
X73800Y52463D01*
X73820Y52438D01*
X73843Y52414D01*
X73845Y52412D01*
X73849Y52409D01*
X73856Y52403D01*
X73867Y52394D01*
X73880Y52385D01*
X73896Y52374D01*
X73914Y52361D01*
X73934Y52350D01*
X73958Y52338D01*
X73984Y52327D01*
X74013Y52316D01*
X74042Y52307D01*
X74075Y52298D01*
X74109Y52292D01*
X74146Y52289D01*
X74184Y52287D01*
X74205D01*
X74220Y52289D01*
X74240Y52290D01*
X74262Y52294D01*
X74286Y52298D01*
X74313Y52303D01*
X74340Y52310D01*
X74369Y52320D01*
X74398Y52330D01*
X74429Y52343D01*
X74458Y52360D01*
X74488Y52378D01*
X74517Y52398D01*
X74542Y52421D01*
X74544Y52423D01*
X74548Y52427D01*
X74555Y52436D01*
X74562Y52445D01*
X74573Y52460D01*
X74584Y52476D01*
X74597Y52496D01*
X74608Y52518D01*
X74620Y52542D01*
X74633Y52571D01*
X74644Y52600D01*
X74655Y52633D01*
X74662Y52669D01*
X74670Y52707D01*
X74673Y52747D01*
X74675Y52791D01*
X74994Y52758D01*
Y52756D01*
Y52754D01*
X74992Y52749D01*
Y52742D01*
X74990Y52724D01*
X74985Y52700D01*
X74979Y52671D01*
X74972Y52636D01*
X74963Y52598D01*
X74952Y52558D01*
X74937Y52514D01*
X74921Y52471D01*
X74901Y52425D01*
X74877Y52380D01*
X74852Y52336D01*
X74821Y52294D01*
X74788Y52254D01*
X74750Y52218D01*
X74748Y52216D01*
X74741Y52210D01*
X74728Y52199D01*
X74712Y52188D01*
X74690Y52174D01*
X74664Y52158D01*
X74633Y52141D01*
X74599Y52123D01*
X74559Y52107D01*
X74517Y52090D01*
X74469Y52074D01*
X74418Y52059D01*
X74364Y52047D01*
X74306Y52037D01*
X74244Y52032D01*
X74178Y52030D01*
X74162D01*
X74144Y52032D01*
X74118Y52034D01*
X74087Y52036D01*
X74053Y52041D01*
X74013Y52047D01*
X73971Y52056D01*
X73925Y52067D01*
X73880Y52079D01*
X73831Y52096D01*
X73783Y52116D01*
X73736Y52139D01*
X73690Y52165D01*
X73647Y52196D01*
X73605Y52232D01*
X73603Y52234D01*
X73596Y52241D01*
X73585Y52252D01*
X73572Y52269D01*
X73556Y52287D01*
X73538Y52310D01*
X73518Y52338D01*
X73497Y52369D01*
X73479Y52403D01*
X73459Y52442D01*
X73441Y52483D01*
X73425Y52527D01*
X73412Y52574D01*
X73401Y52623D01*
X73394Y52676D01*
X73392Y52731D01*
Y52733D01*
Y52738D01*
Y52745D01*
Y52756D01*
X73394Y52771D01*
X73396Y52785D01*
X73397Y52804D01*
X73399Y52824D01*
X73406Y52869D01*
X73418Y52920D01*
X73434Y52973D01*
X73454Y53027D01*
Y53029D01*
X73457Y53035D01*
X73461Y53042D01*
X73467Y53053D01*
X73472Y53066D01*
X73481Y53082D01*
X73490Y53100D01*
X73503Y53120D01*
X73516Y53142D01*
X73530Y53166D01*
X73567Y53219D01*
X73587Y53246D01*
X73609Y53275D01*
X73634Y53304D01*
X73659Y53335D01*
X73661Y53337D01*
X73667Y53342D01*
X73674Y53351D01*
X73687Y53364D01*
X73703Y53381D01*
X73723Y53401D01*
X73745Y53424D01*
X73772Y53452D01*
X73803Y53481D01*
X73840Y53513D01*
X73878Y53550D01*
X73922Y53590D01*
X73969Y53632D01*
X74020Y53677D01*
X74076Y53726D01*
X74136Y53777D01*
X74140Y53779D01*
X74149Y53788D01*
X74162Y53799D01*
X74180Y53816D01*
X74204Y53834D01*
X74227Y53856D01*
X74255Y53879D01*
X74284Y53905D01*
X74346Y53957D01*
X74375Y53985D01*
X74404Y54010D01*
X74431Y54036D01*
X74455Y54058D01*
X74477Y54078D01*
X74493Y54096D01*
X74497Y54100D01*
X74506Y54110D01*
X74520Y54127D01*
X74539Y54147D01*
X74559Y54172D01*
X74580Y54200D01*
X74602Y54230D01*
X74622Y54261D01*
X73388D01*
Y54558D01*
X75052D01*
Y54556D01*
D02*
G37*
G36*
X78458Y42523D02*
X78485D01*
X78520Y42520D01*
X78560Y42518D01*
X78605Y42513D01*
X78654Y42507D01*
X78705Y42498D01*
X78760Y42489D01*
X78818Y42476D01*
X78876Y42461D01*
X78935Y42445D01*
X78993Y42425D01*
X79049Y42401D01*
X79106Y42376D01*
X79109Y42374D01*
X79118Y42369D01*
X79133Y42360D01*
X79155Y42349D01*
X79178Y42332D01*
X79206Y42314D01*
X79238Y42290D01*
X79271Y42265D01*
X79306Y42238D01*
X79344Y42205D01*
X79381Y42170D01*
X79417Y42132D01*
X79453Y42090D01*
X79488Y42046D01*
X79521Y41999D01*
X79552Y41948D01*
X79553Y41945D01*
X79559Y41936D01*
X79566Y41921D01*
X79575Y41899D01*
X79588Y41874D01*
X79601Y41843D01*
X79613Y41806D01*
X79628Y41768D01*
X79642Y41724D01*
X79655Y41677D01*
X79670Y41626D01*
X79681Y41573D01*
X79690Y41517D01*
X79697Y41459D01*
X79703Y41399D01*
X79704Y41337D01*
Y41311D01*
X79703Y41300D01*
X79701Y41273D01*
X79699Y41240D01*
X79694Y41204D01*
X79688Y41162D01*
X79681Y41115D01*
X79670Y41066D01*
X79657Y41015D01*
X79642Y40962D01*
X79623Y40909D01*
X79601Y40856D01*
X79575Y40802D01*
X79546Y40751D01*
X79511Y40702D01*
X79510Y40698D01*
X79502Y40691D01*
X79492Y40676D01*
X79475Y40660D01*
X79457Y40638D01*
X79431Y40614D01*
X79404Y40589D01*
X79371Y40560D01*
X79335Y40530D01*
X79295Y40499D01*
X79249Y40470D01*
X79202Y40441D01*
X79149Y40412D01*
X79093Y40387D01*
X79033Y40361D01*
X78969Y40341D01*
X78893Y40669D01*
X78896Y40671D01*
X78905Y40672D01*
X78918Y40678D01*
X78938Y40685D01*
X78960Y40694D01*
X78986Y40705D01*
X79015Y40720D01*
X79046Y40734D01*
X79078Y40751D01*
X79111Y40771D01*
X79144Y40791D01*
X79178Y40814D01*
X79209Y40840D01*
X79240Y40865D01*
X79268Y40894D01*
X79293Y40925D01*
X79295Y40927D01*
X79299Y40933D01*
X79304Y40942D01*
X79313Y40955D01*
X79322Y40971D01*
X79333Y40991D01*
X79344Y41015D01*
X79357Y41040D01*
X79368Y41069D01*
X79379Y41100D01*
X79390Y41135D01*
X79399Y41171D01*
X79408Y41211D01*
X79413Y41253D01*
X79417Y41297D01*
X79419Y41344D01*
Y41371D01*
X79417Y41391D01*
X79415Y41417D01*
X79411Y41446D01*
X79408Y41479D01*
X79400Y41513D01*
X79393Y41552D01*
X79384Y41590D01*
X79373Y41630D01*
X79360Y41672D01*
X79344Y41712D01*
X79324Y41752D01*
X79304Y41792D01*
X79278Y41830D01*
X79277Y41832D01*
X79273Y41839D01*
X79264Y41848D01*
X79253Y41861D01*
X79238Y41877D01*
X79222Y41895D01*
X79202Y41916D01*
X79180Y41937D01*
X79155Y41959D01*
X79128Y41983D01*
X79097Y42005D01*
X79062Y42026D01*
X79027Y42048D01*
X78989Y42068D01*
X78949Y42087D01*
X78905Y42103D01*
X78904D01*
X78895Y42107D01*
X78882Y42110D01*
X78865Y42116D01*
X78844Y42121D01*
X78818Y42128D01*
X78789Y42134D01*
X78756Y42141D01*
X78722Y42149D01*
X78683Y42156D01*
X78643Y42163D01*
X78601Y42169D01*
X78514Y42178D01*
X78469Y42179D01*
X78421Y42181D01*
X78418D01*
X78407D01*
X78390D01*
X78367Y42179D01*
X78339Y42178D01*
X78307Y42176D01*
X78270Y42174D01*
X78232Y42170D01*
X78188Y42165D01*
X78143Y42159D01*
X78050Y42141D01*
X78001Y42132D01*
X77954Y42119D01*
X77906Y42105D01*
X77861Y42088D01*
X77859Y42087D01*
X77850Y42085D01*
X77839Y42079D01*
X77823Y42070D01*
X77802Y42061D01*
X77779Y42048D01*
X77753Y42034D01*
X77726Y42017D01*
X77699Y41997D01*
X77670Y41976D01*
X77639Y41952D01*
X77610Y41926D01*
X77580Y41897D01*
X77553Y41866D01*
X77528Y41834D01*
X77504Y41797D01*
X77502Y41795D01*
X77499Y41788D01*
X77493Y41777D01*
X77486Y41763D01*
X77477Y41744D01*
X77466Y41723D01*
X77457Y41697D01*
X77446Y41670D01*
X77433Y41639D01*
X77424Y41606D01*
X77413Y41570D01*
X77404Y41533D01*
X77397Y41493D01*
X77391Y41453D01*
X77388Y41411D01*
X77386Y41370D01*
Y41357D01*
X77388Y41342D01*
Y41322D01*
X77391Y41298D01*
X77395Y41271D01*
X77399Y41238D01*
X77406Y41206D01*
X77415Y41169D01*
X77426Y41131D01*
X77438Y41091D01*
X77453Y41051D01*
X77471Y41011D01*
X77493Y40971D01*
X77519Y40933D01*
X77546Y40894D01*
X77548Y40893D01*
X77553Y40885D01*
X77562Y40876D01*
X77577Y40863D01*
X77593Y40847D01*
X77613Y40829D01*
X77639Y40809D01*
X77666Y40789D01*
X77699Y40767D01*
X77733Y40745D01*
X77773Y40722D01*
X77817Y40702D01*
X77863Y40680D01*
X77913Y40661D01*
X77966Y40645D01*
X78025Y40631D01*
X77941Y40297D01*
X77939D01*
X77935Y40299D01*
X77930Y40301D01*
X77923Y40303D01*
X77913Y40305D01*
X77901Y40308D01*
X77873Y40317D01*
X77839Y40330D01*
X77801Y40345D01*
X77757Y40363D01*
X77710Y40385D01*
X77659Y40409D01*
X77608Y40436D01*
X77557Y40467D01*
X77504Y40501D01*
X77453Y40540D01*
X77404Y40581D01*
X77358Y40627D01*
X77315Y40676D01*
X77313Y40680D01*
X77306Y40689D01*
X77295Y40703D01*
X77282Y40725D01*
X77266Y40751D01*
X77247Y40784D01*
X77227Y40820D01*
X77207Y40862D01*
X77187Y40907D01*
X77167Y40958D01*
X77149Y41013D01*
X77133Y41071D01*
X77120Y41135D01*
X77109Y41200D01*
X77102Y41269D01*
X77100Y41342D01*
Y41370D01*
X77102Y41382D01*
Y41410D01*
X77105Y41444D01*
X77109Y41484D01*
X77115Y41530D01*
X77120Y41577D01*
X77129Y41630D01*
X77140Y41682D01*
X77155Y41739D01*
X77169Y41794D01*
X77189Y41848D01*
X77211Y41903D01*
X77236Y41956D01*
X77266Y42005D01*
X77267Y42008D01*
X77273Y42016D01*
X77284Y42028D01*
X77297Y42046D01*
X77313Y42068D01*
X77335Y42092D01*
X77358Y42119D01*
X77388Y42149D01*
X77420Y42179D01*
X77455Y42210D01*
X77495Y42243D01*
X77537Y42276D01*
X77584Y42307D01*
X77633Y42338D01*
X77688Y42367D01*
X77744Y42392D01*
X77746D01*
X77748Y42394D01*
X77759Y42398D01*
X77775Y42405D01*
X77799Y42412D01*
X77828Y42423D01*
X77863Y42434D01*
X77903Y42447D01*
X77946Y42458D01*
X77995Y42471D01*
X78048Y42483D01*
X78103Y42494D01*
X78163Y42505D01*
X78223Y42513D01*
X78287Y42520D01*
X78352Y42523D01*
X78420Y42525D01*
X78421D01*
X78425D01*
X78430D01*
X78438D01*
X78447D01*
X78458Y42523D01*
D02*
G37*
G36*
X79661Y38965D02*
Y38712D01*
X78028D01*
Y38372D01*
X77744D01*
Y38712D01*
X77142D01*
Y39022D01*
X77744D01*
Y40114D01*
X78028D01*
X79661Y38965D01*
D02*
G37*
G36*
X7619Y19394D02*
X6858Y18899D01*
X6856Y18897D01*
X6849Y18894D01*
X6836Y18885D01*
X6822Y18876D01*
X6802Y18863D01*
X6780Y18848D01*
X6754Y18832D01*
X6725Y18814D01*
X6694Y18795D01*
X6662Y18775D01*
X6625Y18754D01*
X6589Y18732D01*
X6512Y18686D01*
X6434Y18643D01*
X6436Y18641D01*
X6443Y18637D01*
X6454Y18632D01*
X6469Y18622D01*
X6487Y18612D01*
X6509Y18597D01*
X6534Y18583D01*
X6563Y18564D01*
X6594Y18546D01*
X6627Y18524D01*
X6663Y18502D01*
X6703Y18479D01*
X6743Y18453D01*
X6787Y18426D01*
X6876Y18368D01*
X7619Y17880D01*
Y17492D01*
X6166Y18497D01*
X5100D01*
Y18830D01*
X6166D01*
X7619Y19800D01*
Y19394D01*
D02*
G37*
G36*
X6996Y17077D02*
X7000Y17070D01*
X7007Y17055D01*
X7016Y17037D01*
X7027Y17015D01*
X7042Y16988D01*
X7058Y16959D01*
X7077Y16928D01*
X7098Y16894D01*
X7120Y16857D01*
X7171Y16781D01*
X7227Y16702D01*
X7289Y16628D01*
X7291Y16626D01*
X7297Y16619D01*
X7306Y16610D01*
X7318Y16597D01*
X7335Y16580D01*
X7353Y16562D01*
X7375Y16542D01*
X7397Y16520D01*
X7422Y16499D01*
X7450Y16475D01*
X7506Y16429D01*
X7566Y16387D01*
X7597Y16369D01*
X7628Y16353D01*
Y16153D01*
X5100D01*
Y16462D01*
X7069D01*
X7067Y16464D01*
X7064Y16468D01*
X7058Y16473D01*
X7051Y16482D01*
X7042Y16493D01*
X7029Y16508D01*
X7016Y16524D01*
X7002Y16540D01*
X6987Y16562D01*
X6969Y16584D01*
X6953Y16608D01*
X6933Y16633D01*
X6915Y16662D01*
X6894Y16691D01*
X6854Y16757D01*
X6853Y16759D01*
X6849Y16764D01*
X6843Y16775D01*
X6838Y16788D01*
X6829Y16803D01*
X6818Y16821D01*
X6807Y16842D01*
X6794Y16864D01*
X6769Y16915D01*
X6743Y16970D01*
X6718Y17026D01*
X6696Y17081D01*
X6995D01*
X6996Y17077D01*
D02*
G37*
G36*
X52558Y35398D02*
X52585D01*
X52620Y35394D01*
X52660Y35393D01*
X52705Y35387D01*
X52754Y35382D01*
X52805Y35373D01*
X52860Y35364D01*
X52918Y35351D01*
X52976Y35336D01*
X53035Y35320D01*
X53093Y35300D01*
X53149Y35276D01*
X53206Y35251D01*
X53209Y35249D01*
X53218Y35243D01*
X53233Y35234D01*
X53255Y35223D01*
X53278Y35207D01*
X53306Y35189D01*
X53338Y35165D01*
X53371Y35140D01*
X53406Y35112D01*
X53444Y35080D01*
X53480Y35045D01*
X53517Y35007D01*
X53553Y34965D01*
X53588Y34921D01*
X53621Y34874D01*
X53651Y34823D01*
X53653Y34819D01*
X53659Y34810D01*
X53666Y34796D01*
X53675Y34774D01*
X53688Y34748D01*
X53701Y34718D01*
X53713Y34681D01*
X53728Y34643D01*
X53742Y34599D01*
X53755Y34552D01*
X53770Y34501D01*
X53781Y34448D01*
X53790Y34392D01*
X53797Y34334D01*
X53803Y34273D01*
X53804Y34212D01*
Y34186D01*
X53803Y34175D01*
X53801Y34148D01*
X53799Y34115D01*
X53794Y34079D01*
X53788Y34037D01*
X53781Y33990D01*
X53770Y33940D01*
X53757Y33889D01*
X53742Y33837D01*
X53723Y33784D01*
X53701Y33731D01*
X53675Y33676D01*
X53646Y33626D01*
X53611Y33576D01*
X53610Y33573D01*
X53602Y33565D01*
X53592Y33551D01*
X53575Y33535D01*
X53557Y33513D01*
X53531Y33489D01*
X53504Y33463D01*
X53471Y33434D01*
X53435Y33405D01*
X53395Y33374D01*
X53349Y33345D01*
X53302Y33316D01*
X53249Y33287D01*
X53193Y33261D01*
X53133Y33236D01*
X53069Y33216D01*
X52993Y33544D01*
X52996Y33545D01*
X53005Y33547D01*
X53018Y33553D01*
X53038Y33560D01*
X53060Y33569D01*
X53086Y33580D01*
X53115Y33595D01*
X53146Y33609D01*
X53178Y33626D01*
X53211Y33645D01*
X53244Y33665D01*
X53278Y33689D01*
X53309Y33715D01*
X53340Y33740D01*
X53368Y33769D01*
X53393Y33800D01*
X53395Y33802D01*
X53399Y33808D01*
X53404Y33817D01*
X53413Y33829D01*
X53422Y33846D01*
X53433Y33866D01*
X53444Y33889D01*
X53457Y33915D01*
X53468Y33944D01*
X53479Y33975D01*
X53490Y34010D01*
X53499Y34046D01*
X53508Y34086D01*
X53513Y34128D01*
X53517Y34172D01*
X53519Y34219D01*
Y34246D01*
X53517Y34266D01*
X53515Y34292D01*
X53511Y34321D01*
X53508Y34354D01*
X53500Y34388D01*
X53493Y34426D01*
X53484Y34464D01*
X53473Y34505D01*
X53460Y34546D01*
X53444Y34587D01*
X53424Y34626D01*
X53404Y34666D01*
X53378Y34705D01*
X53377Y34707D01*
X53373Y34714D01*
X53364Y34723D01*
X53353Y34736D01*
X53338Y34752D01*
X53322Y34770D01*
X53302Y34790D01*
X53280Y34812D01*
X53255Y34834D01*
X53228Y34858D01*
X53197Y34879D01*
X53162Y34901D01*
X53127Y34923D01*
X53089Y34943D01*
X53049Y34961D01*
X53005Y34978D01*
X53004D01*
X52995Y34981D01*
X52982Y34985D01*
X52965Y34991D01*
X52944Y34996D01*
X52918Y35003D01*
X52889Y35009D01*
X52856Y35016D01*
X52822Y35023D01*
X52783Y35030D01*
X52743Y35038D01*
X52701Y35043D01*
X52614Y35052D01*
X52569Y35054D01*
X52521Y35056D01*
X52518D01*
X52507D01*
X52490D01*
X52467Y35054D01*
X52439Y35052D01*
X52407Y35051D01*
X52370Y35049D01*
X52332Y35045D01*
X52288Y35040D01*
X52243Y35034D01*
X52150Y35016D01*
X52101Y35007D01*
X52054Y34994D01*
X52006Y34980D01*
X51961Y34963D01*
X51959Y34961D01*
X51950Y34960D01*
X51939Y34954D01*
X51923Y34945D01*
X51903Y34936D01*
X51879Y34923D01*
X51853Y34909D01*
X51826Y34892D01*
X51799Y34872D01*
X51770Y34850D01*
X51739Y34827D01*
X51710Y34801D01*
X51680Y34772D01*
X51653Y34741D01*
X51628Y34708D01*
X51604Y34672D01*
X51602Y34670D01*
X51599Y34663D01*
X51593Y34652D01*
X51586Y34637D01*
X51577Y34619D01*
X51566Y34597D01*
X51557Y34572D01*
X51546Y34545D01*
X51533Y34514D01*
X51524Y34481D01*
X51513Y34444D01*
X51504Y34408D01*
X51497Y34368D01*
X51491Y34328D01*
X51488Y34286D01*
X51486Y34244D01*
Y34232D01*
X51488Y34217D01*
Y34197D01*
X51491Y34173D01*
X51495Y34146D01*
X51499Y34113D01*
X51506Y34080D01*
X51515Y34044D01*
X51526Y34006D01*
X51538Y33966D01*
X51553Y33926D01*
X51571Y33886D01*
X51593Y33846D01*
X51619Y33808D01*
X51646Y33769D01*
X51648Y33768D01*
X51653Y33760D01*
X51662Y33751D01*
X51677Y33738D01*
X51693Y33722D01*
X51713Y33704D01*
X51739Y33684D01*
X51766Y33664D01*
X51799Y33642D01*
X51833Y33620D01*
X51873Y33596D01*
X51917Y33576D01*
X51963Y33555D01*
X52013Y33536D01*
X52066Y33520D01*
X52125Y33505D01*
X52041Y33172D01*
X52039D01*
X52035Y33174D01*
X52030Y33176D01*
X52023Y33178D01*
X52013Y33180D01*
X52001Y33183D01*
X51973Y33192D01*
X51939Y33205D01*
X51901Y33220D01*
X51857Y33238D01*
X51810Y33260D01*
X51759Y33283D01*
X51708Y33311D01*
X51657Y33342D01*
X51604Y33376D01*
X51553Y33414D01*
X51504Y33456D01*
X51458Y33502D01*
X51415Y33551D01*
X51413Y33555D01*
X51406Y33564D01*
X51395Y33578D01*
X51382Y33600D01*
X51366Y33626D01*
X51347Y33658D01*
X51327Y33695D01*
X51307Y33737D01*
X51287Y33782D01*
X51267Y33833D01*
X51249Y33888D01*
X51233Y33946D01*
X51220Y34010D01*
X51209Y34075D01*
X51202Y34144D01*
X51200Y34217D01*
Y34244D01*
X51202Y34257D01*
Y34284D01*
X51205Y34319D01*
X51209Y34359D01*
X51215Y34405D01*
X51220Y34452D01*
X51229Y34505D01*
X51240Y34557D01*
X51255Y34614D01*
X51269Y34668D01*
X51289Y34723D01*
X51311Y34778D01*
X51336Y34830D01*
X51366Y34879D01*
X51367Y34883D01*
X51373Y34890D01*
X51384Y34903D01*
X51397Y34921D01*
X51413Y34943D01*
X51435Y34967D01*
X51458Y34994D01*
X51488Y35023D01*
X51520Y35054D01*
X51555Y35085D01*
X51595Y35118D01*
X51637Y35151D01*
X51684Y35182D01*
X51733Y35212D01*
X51788Y35242D01*
X51844Y35267D01*
X51846D01*
X51848Y35269D01*
X51859Y35273D01*
X51875Y35280D01*
X51899Y35287D01*
X51928Y35298D01*
X51963Y35309D01*
X52003Y35322D01*
X52046Y35333D01*
X52095Y35345D01*
X52148Y35358D01*
X52203Y35369D01*
X52263Y35380D01*
X52323Y35387D01*
X52387Y35394D01*
X52452Y35398D01*
X52520Y35400D01*
X52521D01*
X52525D01*
X52530D01*
X52538D01*
X52547D01*
X52558Y35398D01*
D02*
G37*
G36*
X51930Y32564D02*
X51928D01*
X51919Y32563D01*
X51908Y32561D01*
X51892Y32557D01*
X51872Y32552D01*
X51848Y32546D01*
X51822Y32539D01*
X51795Y32530D01*
X51739Y32508D01*
X51708Y32495D01*
X51679Y32481D01*
X51649Y32462D01*
X51622Y32444D01*
X51597Y32423D01*
X51573Y32399D01*
X51571Y32397D01*
X51568Y32393D01*
X51562Y32386D01*
X51555Y32375D01*
X51546Y32362D01*
X51535Y32346D01*
X51526Y32330D01*
X51515Y32310D01*
X51502Y32288D01*
X51493Y32262D01*
X51482Y32237D01*
X51473Y32208D01*
X51466Y32179D01*
X51460Y32148D01*
X51457Y32115D01*
X51455Y32080D01*
Y32069D01*
X51457Y32059D01*
Y32042D01*
X51460Y32024D01*
X51464Y32000D01*
X51469Y31975D01*
X51477Y31947D01*
X51484Y31918D01*
X51495Y31887D01*
X51509Y31857D01*
X51526Y31824D01*
X51544Y31793D01*
X51568Y31760D01*
X51593Y31729D01*
X51622Y31700D01*
X51624Y31698D01*
X51630Y31693D01*
X51640Y31685D01*
X51653Y31676D01*
X51670Y31664D01*
X51690Y31651D01*
X51713Y31636D01*
X51740Y31622D01*
X51771Y31609D01*
X51804Y31594D01*
X51841Y31582D01*
X51881Y31569D01*
X51924Y31560D01*
X51970Y31552D01*
X52017Y31547D01*
X52068Y31545D01*
X52072D01*
X52079D01*
X52094Y31547D01*
X52112D01*
X52134Y31549D01*
X52161Y31552D01*
X52188Y31558D01*
X52221Y31563D01*
X52254Y31572D01*
X52286Y31582D01*
X52321Y31594D01*
X52358Y31609D01*
X52392Y31625D01*
X52425Y31645D01*
X52458Y31669D01*
X52487Y31694D01*
X52489Y31696D01*
X52494Y31702D01*
X52501Y31709D01*
X52510Y31722D01*
X52523Y31736D01*
X52536Y31754D01*
X52549Y31775D01*
X52563Y31798D01*
X52578Y31826D01*
X52591Y31855D01*
X52605Y31886D01*
X52616Y31920D01*
X52625Y31958D01*
X52632Y31998D01*
X52638Y32040D01*
X52640Y32084D01*
Y32098D01*
X52638Y32109D01*
Y32122D01*
X52636Y32139D01*
X52634Y32155D01*
X52631Y32175D01*
X52623Y32217D01*
X52610Y32262D01*
X52594Y32310D01*
X52570Y32355D01*
Y32357D01*
X52567Y32361D01*
X52563Y32366D01*
X52558Y32375D01*
X52543Y32397D01*
X52523Y32424D01*
X52498Y32453D01*
X52469Y32484D01*
X52434Y32515D01*
X52396Y32543D01*
X52434Y32834D01*
X53728Y32590D01*
Y31336D01*
X53433D01*
Y32344D01*
X52754Y32479D01*
X52756Y32477D01*
X52762Y32468D01*
X52769Y32457D01*
X52780Y32439D01*
X52791Y32419D01*
X52805Y32395D01*
X52818Y32366D01*
X52834Y32335D01*
X52849Y32300D01*
X52864Y32264D01*
X52876Y32224D01*
X52887Y32184D01*
X52898Y32140D01*
X52905Y32097D01*
X52911Y32049D01*
X52913Y32004D01*
Y31989D01*
X52911Y31971D01*
X52909Y31949D01*
X52905Y31920D01*
X52900Y31887D01*
X52893Y31849D01*
X52883Y31809D01*
X52873Y31767D01*
X52856Y31722D01*
X52838Y31676D01*
X52816Y31629D01*
X52789Y31582D01*
X52760Y31534D01*
X52723Y31489D01*
X52683Y31445D01*
X52681Y31443D01*
X52672Y31436D01*
X52660Y31423D01*
X52641Y31409D01*
X52620Y31392D01*
X52592Y31372D01*
X52560Y31352D01*
X52523Y31330D01*
X52483Y31310D01*
X52439Y31290D01*
X52390Y31270D01*
X52339Y31252D01*
X52283Y31240D01*
X52223Y31227D01*
X52161Y31220D01*
X52095Y31218D01*
X52094D01*
X52092D01*
X52086D01*
X52081D01*
X52063Y31220D01*
X52039Y31221D01*
X52008Y31223D01*
X51973Y31229D01*
X51935Y31234D01*
X51893Y31243D01*
X51848Y31254D01*
X51801Y31267D01*
X51752Y31283D01*
X51702Y31301D01*
X51651Y31325D01*
X51602Y31352D01*
X51553Y31383D01*
X51506Y31418D01*
X51502Y31422D01*
X51493Y31429D01*
X51478Y31443D01*
X51458Y31462D01*
X51435Y31487D01*
X51409Y31516D01*
X51382Y31551D01*
X51353Y31591D01*
X51324Y31636D01*
X51297Y31685D01*
X51271Y31740D01*
X51247Y31800D01*
X51229Y31864D01*
X51213Y31931D01*
X51204Y32004D01*
X51200Y32080D01*
Y32095D01*
X51202Y32113D01*
X51204Y32137D01*
X51205Y32166D01*
X51211Y32200D01*
X51216Y32239D01*
X51224Y32279D01*
X51235Y32322D01*
X51247Y32368D01*
X51262Y32415D01*
X51280Y32462D01*
X51302Y32508D01*
X51327Y32555D01*
X51358Y32599D01*
X51391Y32641D01*
X51393Y32643D01*
X51400Y32650D01*
X51411Y32661D01*
X51426Y32675D01*
X51446Y32692D01*
X51469Y32712D01*
X51497Y32732D01*
X51528Y32754D01*
X51562Y32776D01*
X51600Y32796D01*
X51642Y32817D01*
X51688Y32837D01*
X51737Y32854D01*
X51790Y32868D01*
X51844Y32881D01*
X51903Y32888D01*
X51930Y32564D01*
D02*
G37*
G36*
X90261Y53798D02*
X90289D01*
X90323Y53794D01*
X90363Y53793D01*
X90409Y53787D01*
X90458Y53782D01*
X90509Y53773D01*
X90563Y53764D01*
X90622Y53751D01*
X90680Y53736D01*
X90738Y53720D01*
X90796Y53700D01*
X90853Y53676D01*
X90909Y53651D01*
X90913Y53649D01*
X90922Y53644D01*
X90937Y53634D01*
X90958Y53623D01*
X90982Y53607D01*
X91009Y53589D01*
X91042Y53565D01*
X91075Y53540D01*
X91110Y53512D01*
X91148Y53480D01*
X91184Y53445D01*
X91220Y53407D01*
X91257Y53365D01*
X91291Y53321D01*
X91324Y53274D01*
X91355Y53223D01*
X91357Y53219D01*
X91363Y53210D01*
X91370Y53196D01*
X91379Y53174D01*
X91392Y53148D01*
X91404Y53118D01*
X91417Y53081D01*
X91432Y53043D01*
X91446Y52999D01*
X91459Y52952D01*
X91474Y52901D01*
X91484Y52848D01*
X91493Y52792D01*
X91501Y52733D01*
X91506Y52673D01*
X91508Y52612D01*
Y52586D01*
X91506Y52575D01*
X91504Y52548D01*
X91503Y52515D01*
X91497Y52479D01*
X91492Y52437D01*
X91484Y52390D01*
X91474Y52340D01*
X91461Y52289D01*
X91446Y52237D01*
X91426Y52184D01*
X91404Y52131D01*
X91379Y52077D01*
X91350Y52026D01*
X91315Y51976D01*
X91313Y51973D01*
X91306Y51965D01*
X91295Y51951D01*
X91279Y51934D01*
X91260Y51913D01*
X91235Y51889D01*
X91208Y51863D01*
X91175Y51834D01*
X91139Y51805D01*
X91099Y51774D01*
X91053Y51745D01*
X91006Y51716D01*
X90953Y51687D01*
X90896Y51661D01*
X90837Y51636D01*
X90773Y51616D01*
X90696Y51944D01*
X90700Y51945D01*
X90709Y51947D01*
X90722Y51953D01*
X90742Y51960D01*
X90764Y51969D01*
X90789Y51980D01*
X90818Y51995D01*
X90849Y52009D01*
X90882Y52026D01*
X90915Y52046D01*
X90948Y52065D01*
X90982Y52089D01*
X91013Y52115D01*
X91044Y52140D01*
X91071Y52169D01*
X91097Y52200D01*
X91099Y52202D01*
X91102Y52207D01*
X91108Y52217D01*
X91117Y52229D01*
X91126Y52246D01*
X91137Y52266D01*
X91148Y52289D01*
X91160Y52315D01*
X91171Y52344D01*
X91182Y52375D01*
X91193Y52409D01*
X91202Y52446D01*
X91211Y52486D01*
X91217Y52528D01*
X91220Y52571D01*
X91222Y52619D01*
Y52646D01*
X91220Y52666D01*
X91219Y52692D01*
X91215Y52721D01*
X91211Y52754D01*
X91204Y52788D01*
X91197Y52826D01*
X91188Y52864D01*
X91177Y52905D01*
X91164Y52946D01*
X91148Y52987D01*
X91128Y53026D01*
X91108Y53066D01*
X91082Y53105D01*
X91080Y53107D01*
X91077Y53114D01*
X91068Y53123D01*
X91057Y53136D01*
X91042Y53152D01*
X91026Y53170D01*
X91006Y53190D01*
X90984Y53212D01*
X90958Y53234D01*
X90931Y53258D01*
X90900Y53280D01*
X90866Y53301D01*
X90831Y53323D01*
X90793Y53343D01*
X90753Y53361D01*
X90709Y53378D01*
X90707D01*
X90698Y53381D01*
X90685Y53385D01*
X90669Y53391D01*
X90647Y53396D01*
X90622Y53403D01*
X90593Y53409D01*
X90560Y53416D01*
X90525Y53423D01*
X90487Y53430D01*
X90447Y53438D01*
X90405Y53443D01*
X90318Y53452D01*
X90272Y53454D01*
X90225Y53456D01*
X90221D01*
X90210D01*
X90194D01*
X90170Y53454D01*
X90143Y53452D01*
X90110Y53451D01*
X90074Y53449D01*
X90036Y53445D01*
X89992Y53440D01*
X89947Y53434D01*
X89854Y53416D01*
X89805Y53407D01*
X89757Y53394D01*
X89710Y53380D01*
X89664Y53363D01*
X89663Y53361D01*
X89653Y53360D01*
X89643Y53354D01*
X89626Y53345D01*
X89606Y53336D01*
X89583Y53323D01*
X89557Y53309D01*
X89530Y53292D01*
X89502Y53272D01*
X89473Y53250D01*
X89442Y53227D01*
X89413Y53201D01*
X89384Y53172D01*
X89357Y53141D01*
X89331Y53108D01*
X89308Y53072D01*
X89306Y53070D01*
X89302Y53063D01*
X89297Y53052D01*
X89289Y53037D01*
X89280Y53019D01*
X89270Y52997D01*
X89260Y52972D01*
X89249Y52945D01*
X89237Y52914D01*
X89228Y52881D01*
X89217Y52845D01*
X89208Y52808D01*
X89200Y52768D01*
X89195Y52728D01*
X89191Y52686D01*
X89189Y52644D01*
Y52632D01*
X89191Y52617D01*
Y52597D01*
X89195Y52573D01*
X89198Y52546D01*
X89202Y52513D01*
X89209Y52481D01*
X89218Y52444D01*
X89229Y52406D01*
X89242Y52366D01*
X89257Y52326D01*
X89275Y52286D01*
X89297Y52246D01*
X89322Y52207D01*
X89350Y52169D01*
X89351Y52167D01*
X89357Y52160D01*
X89366Y52151D01*
X89381Y52138D01*
X89397Y52122D01*
X89417Y52104D01*
X89442Y52084D01*
X89470Y52064D01*
X89502Y52042D01*
X89537Y52020D01*
X89577Y51996D01*
X89621Y51976D01*
X89666Y51955D01*
X89717Y51936D01*
X89770Y51920D01*
X89828Y51905D01*
X89745Y51572D01*
X89743D01*
X89739Y51574D01*
X89734Y51576D01*
X89726Y51578D01*
X89717Y51580D01*
X89704Y51583D01*
X89677Y51592D01*
X89643Y51605D01*
X89604Y51620D01*
X89561Y51638D01*
X89513Y51660D01*
X89462Y51683D01*
X89411Y51711D01*
X89360Y51742D01*
X89308Y51776D01*
X89257Y51814D01*
X89208Y51856D01*
X89162Y51902D01*
X89118Y51951D01*
X89117Y51955D01*
X89109Y51964D01*
X89098Y51978D01*
X89086Y52000D01*
X89069Y52026D01*
X89051Y52058D01*
X89031Y52095D01*
X89011Y52136D01*
X88991Y52182D01*
X88971Y52233D01*
X88953Y52288D01*
X88936Y52346D01*
X88924Y52409D01*
X88913Y52475D01*
X88906Y52544D01*
X88904Y52617D01*
Y52644D01*
X88906Y52657D01*
Y52684D01*
X88909Y52719D01*
X88913Y52759D01*
X88918Y52804D01*
X88924Y52852D01*
X88933Y52905D01*
X88944Y52957D01*
X88958Y53014D01*
X88973Y53068D01*
X88993Y53123D01*
X89015Y53178D01*
X89040Y53230D01*
X89069Y53280D01*
X89071Y53283D01*
X89077Y53290D01*
X89087Y53303D01*
X89100Y53321D01*
X89117Y53343D01*
X89138Y53367D01*
X89162Y53394D01*
X89191Y53423D01*
X89224Y53454D01*
X89258Y53485D01*
X89299Y53518D01*
X89340Y53551D01*
X89388Y53582D01*
X89437Y53613D01*
X89491Y53642D01*
X89548Y53667D01*
X89550D01*
X89552Y53669D01*
X89562Y53673D01*
X89579Y53680D01*
X89603Y53687D01*
X89632Y53698D01*
X89666Y53709D01*
X89706Y53722D01*
X89750Y53733D01*
X89799Y53745D01*
X89852Y53758D01*
X89907Y53769D01*
X89966Y53780D01*
X90027Y53787D01*
X90090Y53794D01*
X90156Y53798D01*
X90223Y53800D01*
X90225D01*
X90229D01*
X90234D01*
X90241D01*
X90250D01*
X90261Y53798D01*
D02*
G37*
G36*
X89652Y50977D02*
X89648D01*
X89641Y50975D01*
X89626Y50972D01*
X89608Y50966D01*
X89586Y50961D01*
X89562Y50954D01*
X89535Y50944D01*
X89506Y50935D01*
X89442Y50910D01*
X89381Y50879D01*
X89350Y50861D01*
X89320Y50841D01*
X89295Y50821D01*
X89271Y50797D01*
X89270Y50795D01*
X89266Y50792D01*
X89260Y50784D01*
X89253Y50773D01*
X89244Y50762D01*
X89235Y50746D01*
X89224Y50730D01*
X89215Y50710D01*
X89204Y50688D01*
X89193Y50664D01*
X89184Y50639D01*
X89175Y50611D01*
X89167Y50582D01*
X89162Y50551D01*
X89158Y50520D01*
X89157Y50486D01*
Y50477D01*
X89158Y50464D01*
Y50449D01*
X89162Y50429D01*
X89164Y50407D01*
X89169Y50384D01*
X89175Y50357D01*
X89184Y50329D01*
X89193Y50298D01*
X89206Y50267D01*
X89220Y50236D01*
X89239Y50205D01*
X89258Y50175D01*
X89280Y50145D01*
X89308Y50116D01*
X89310Y50115D01*
X89315Y50109D01*
X89322Y50102D01*
X89335Y50093D01*
X89350Y50082D01*
X89368Y50069D01*
X89388Y50054D01*
X89411Y50040D01*
X89437Y50027D01*
X89466Y50013D01*
X89495Y50000D01*
X89530Y49989D01*
X89564Y49980D01*
X89601Y49973D01*
X89641Y49967D01*
X89681Y49965D01*
X89683D01*
X89690D01*
X89701D01*
X89717Y49967D01*
X89734Y49969D01*
X89755Y49973D01*
X89779Y49976D01*
X89805Y49984D01*
X89832Y49991D01*
X89861Y50000D01*
X89890Y50011D01*
X89919Y50024D01*
X89948Y50040D01*
X89977Y50060D01*
X90005Y50080D01*
X90032Y50105D01*
X90034Y50107D01*
X90038Y50111D01*
X90045Y50120D01*
X90054Y50131D01*
X90065Y50144D01*
X90076Y50160D01*
X90088Y50180D01*
X90101Y50202D01*
X90114Y50226D01*
X90127Y50253D01*
X90138Y50282D01*
X90149Y50313D01*
X90158Y50346D01*
X90165Y50382D01*
X90168Y50418D01*
X90170Y50459D01*
Y50475D01*
X90168Y50493D01*
X90167Y50519D01*
X90163Y50551D01*
X90156Y50588D01*
X90149Y50630D01*
X90138Y50677D01*
X90409Y50642D01*
Y50637D01*
X90407Y50631D01*
Y50624D01*
X90405Y50608D01*
Y50573D01*
X90407Y50560D01*
X90409Y50542D01*
X90411Y50522D01*
X90414Y50500D01*
X90418Y50475D01*
X90423Y50448D01*
X90431Y50420D01*
X90449Y50360D01*
X90460Y50329D01*
X90474Y50298D01*
X90489Y50267D01*
X90507Y50238D01*
X90509Y50236D01*
X90513Y50231D01*
X90518Y50224D01*
X90527Y50213D01*
X90538Y50202D01*
X90551Y50187D01*
X90567Y50175D01*
X90585Y50158D01*
X90607Y50144D01*
X90631Y50129D01*
X90656Y50116D01*
X90685Y50105D01*
X90716Y50094D01*
X90751Y50087D01*
X90787Y50082D01*
X90826Y50080D01*
X90827D01*
X90833D01*
X90842D01*
X90855Y50082D01*
X90867Y50084D01*
X90886Y50085D01*
X90904Y50089D01*
X90924Y50094D01*
X90968Y50109D01*
X90991Y50118D01*
X91015Y50129D01*
X91039Y50142D01*
X91062Y50158D01*
X91084Y50176D01*
X91106Y50196D01*
X91108Y50198D01*
X91111Y50202D01*
X91117Y50207D01*
X91124Y50216D01*
X91131Y50229D01*
X91142Y50242D01*
X91151Y50258D01*
X91162Y50276D01*
X91173Y50296D01*
X91182Y50318D01*
X91193Y50344D01*
X91201Y50369D01*
X91208Y50398D01*
X91213Y50428D01*
X91217Y50460D01*
X91219Y50493D01*
Y50511D01*
X91217Y50522D01*
X91215Y50539D01*
X91213Y50557D01*
X91210Y50577D01*
X91204Y50599D01*
X91191Y50646D01*
X91182Y50670D01*
X91170Y50695D01*
X91157Y50721D01*
X91142Y50746D01*
X91124Y50770D01*
X91104Y50793D01*
X91102Y50795D01*
X91099Y50799D01*
X91091Y50804D01*
X91082Y50813D01*
X91071Y50823D01*
X91057Y50833D01*
X91039Y50844D01*
X91020Y50857D01*
X90997Y50870D01*
X90971Y50883D01*
X90944Y50897D01*
X90913Y50908D01*
X90880Y50921D01*
X90846Y50930D01*
X90807Y50939D01*
X90766Y50946D01*
X90820Y51256D01*
X90822D01*
X90824D01*
X90835Y51252D01*
X90849Y51248D01*
X90871Y51243D01*
X90898Y51236D01*
X90927Y51227D01*
X90960Y51216D01*
X90997Y51203D01*
X91035Y51187D01*
X91075Y51168D01*
X91115Y51146D01*
X91155Y51123D01*
X91195Y51097D01*
X91233Y51068D01*
X91270Y51035D01*
X91302Y50999D01*
X91304Y50997D01*
X91310Y50990D01*
X91319Y50979D01*
X91330Y50963D01*
X91342Y50943D01*
X91357Y50919D01*
X91372Y50892D01*
X91388Y50861D01*
X91404Y50826D01*
X91419Y50788D01*
X91433Y50748D01*
X91446Y50704D01*
X91457Y50657D01*
X91466Y50606D01*
X91472Y50553D01*
X91474Y50498D01*
Y50479D01*
X91472Y50464D01*
Y50446D01*
X91468Y50424D01*
X91466Y50400D01*
X91463Y50375D01*
X91457Y50346D01*
X91452Y50317D01*
X91435Y50253D01*
X91426Y50218D01*
X91413Y50186D01*
X91401Y50153D01*
X91384Y50120D01*
X91382Y50118D01*
X91381Y50113D01*
X91375Y50104D01*
X91368Y50091D01*
X91359Y50076D01*
X91348Y50060D01*
X91335Y50042D01*
X91321Y50022D01*
X91286Y49978D01*
X91244Y49934D01*
X91197Y49893D01*
X91170Y49872D01*
X91142Y49854D01*
X91140Y49852D01*
X91135Y49851D01*
X91128Y49845D01*
X91115Y49840D01*
X91102Y49832D01*
X91084Y49825D01*
X91066Y49816D01*
X91044Y49807D01*
X91020Y49800D01*
X90997Y49790D01*
X90942Y49776D01*
X90882Y49765D01*
X90851Y49763D01*
X90818Y49761D01*
X90816D01*
X90811D01*
X90802D01*
X90791Y49763D01*
X90776D01*
X90760Y49767D01*
X90740Y49769D01*
X90720Y49772D01*
X90673Y49783D01*
X90623Y49800D01*
X90598Y49809D01*
X90571Y49821D01*
X90545Y49834D01*
X90520Y49851D01*
X90518Y49852D01*
X90514Y49854D01*
X90507Y49860D01*
X90498Y49867D01*
X90487Y49876D01*
X90474Y49887D01*
X90460Y49900D01*
X90443Y49916D01*
X90427Y49933D01*
X90411Y49953D01*
X90392Y49973D01*
X90374Y49996D01*
X90358Y50022D01*
X90340Y50049D01*
X90323Y50078D01*
X90309Y50109D01*
Y50107D01*
X90307Y50100D01*
X90303Y50087D01*
X90298Y50073D01*
X90292Y50053D01*
X90283Y50031D01*
X90274Y50007D01*
X90261Y49982D01*
X90249Y49954D01*
X90232Y49925D01*
X90216Y49896D01*
X90196Y49867D01*
X90174Y49840D01*
X90150Y49812D01*
X90123Y49785D01*
X90094Y49761D01*
X90092Y49760D01*
X90087Y49756D01*
X90078Y49751D01*
X90065Y49741D01*
X90048Y49732D01*
X90030Y49721D01*
X90008Y49711D01*
X89983Y49700D01*
X89954Y49689D01*
X89923Y49676D01*
X89890Y49667D01*
X89854Y49658D01*
X89815Y49649D01*
X89775Y49643D01*
X89734Y49639D01*
X89688Y49638D01*
X89684D01*
X89674D01*
X89655Y49639D01*
X89634Y49641D01*
X89604Y49645D01*
X89572Y49650D01*
X89535Y49658D01*
X89495Y49669D01*
X89451Y49681D01*
X89408Y49696D01*
X89360Y49716D01*
X89313Y49740D01*
X89266Y49767D01*
X89218Y49800D01*
X89173Y49838D01*
X89129Y49880D01*
X89127Y49883D01*
X89120Y49891D01*
X89108Y49903D01*
X89093Y49923D01*
X89077Y49947D01*
X89056Y49974D01*
X89037Y50009D01*
X89015Y50045D01*
X88993Y50087D01*
X88973Y50134D01*
X88953Y50184D01*
X88936Y50238D01*
X88922Y50295D01*
X88909Y50357D01*
X88902Y50420D01*
X88900Y50488D01*
Y50502D01*
X88902Y50520D01*
X88904Y50542D01*
X88906Y50571D01*
X88911Y50604D01*
X88916Y50640D01*
X88925Y50681D01*
X88935Y50722D01*
X88947Y50768D01*
X88964Y50813D01*
X88984Y50861D01*
X89006Y50906D01*
X89031Y50952D01*
X89062Y50997D01*
X89097Y51039D01*
X89098Y51041D01*
X89106Y51048D01*
X89117Y51059D01*
X89133Y51074D01*
X89153Y51090D01*
X89177Y51110D01*
X89204Y51130D01*
X89235Y51152D01*
X89270Y51174D01*
X89310Y51196D01*
X89351Y51216D01*
X89397Y51236D01*
X89446Y51252D01*
X89497Y51268D01*
X89552Y51279D01*
X89610Y51287D01*
X89652Y50977D01*
D02*
G37*
G36*
X1916Y42020D02*
X1923Y42011D01*
X1940Y41998D01*
X1960Y41980D01*
X1985Y41958D01*
X2016Y41932D01*
X2052Y41903D01*
X2094Y41872D01*
X2140Y41838D01*
X2191Y41800D01*
X2247Y41759D01*
X2307Y41719D01*
X2373Y41676D01*
X2442Y41634D01*
X2515Y41588D01*
X2593Y41545D01*
X2595D01*
X2598Y41543D01*
X2604Y41539D01*
X2611Y41534D01*
X2622Y41528D01*
X2635Y41523D01*
X2649Y41514D01*
X2666Y41506D01*
X2684Y41495D01*
X2706Y41486D01*
X2751Y41463D01*
X2802Y41437D01*
X2860Y41410D01*
X2924Y41381D01*
X2993Y41352D01*
X3064Y41321D01*
X3141Y41292D01*
X3219Y41261D01*
X3299Y41233D01*
X3383Y41206D01*
X3467Y41181D01*
X3470Y41179D01*
X3481Y41177D01*
X3497Y41172D01*
X3521Y41166D01*
X3552Y41159D01*
X3587Y41150D01*
X3627Y41141D01*
X3672Y41131D01*
X3721Y41121D01*
X3774Y41111D01*
X3832Y41101D01*
X3892Y41091D01*
X3954Y41082D01*
X4020Y41075D01*
X4089Y41068D01*
X4158Y41062D01*
Y40744D01*
X4154D01*
X4145D01*
X4127Y40746D01*
X4105D01*
X4076Y40747D01*
X4042Y40751D01*
X4002Y40755D01*
X3958Y40760D01*
X3907Y40766D01*
X3852Y40773D01*
X3794Y40782D01*
X3731Y40793D01*
X3663Y40808D01*
X3592Y40822D01*
X3517Y40839D01*
X3441Y40859D01*
X3439D01*
X3436Y40860D01*
X3430Y40862D01*
X3423Y40864D01*
X3412Y40868D01*
X3399Y40871D01*
X3385Y40875D01*
X3368Y40880D01*
X3332Y40891D01*
X3286Y40906D01*
X3237Y40922D01*
X3181Y40940D01*
X3121Y40962D01*
X3057Y40986D01*
X2990Y41013D01*
X2921Y41041D01*
X2850Y41071D01*
X2777Y41106D01*
X2702Y41141D01*
X2629Y41179D01*
X2628D01*
X2626Y41181D01*
X2620Y41184D01*
X2611Y41188D01*
X2602Y41193D01*
X2591Y41201D01*
X2564Y41215D01*
X2531Y41235D01*
X2491Y41257D01*
X2447Y41284D01*
X2400Y41313D01*
X2349Y41344D01*
X2296Y41379D01*
X2242Y41417D01*
X2185Y41456D01*
X2074Y41537D01*
X2020Y41581D01*
X1969Y41625D01*
Y40391D01*
X1672D01*
Y42022D01*
X1912D01*
X1916Y42020D01*
D02*
G37*
G36*
X3365Y40085D02*
X3370Y40083D01*
X3377Y40081D01*
X3387Y40080D01*
X3399Y40076D01*
X3427Y40067D01*
X3461Y40054D01*
X3499Y40040D01*
X3543Y40021D01*
X3590Y39999D01*
X3641Y39976D01*
X3692Y39948D01*
X3743Y39918D01*
X3796Y39883D01*
X3847Y39845D01*
X3896Y39803D01*
X3942Y39757D01*
X3985Y39708D01*
X3987Y39705D01*
X3994Y39696D01*
X4005Y39681D01*
X4018Y39659D01*
X4034Y39634D01*
X4053Y39601D01*
X4073Y39564D01*
X4093Y39523D01*
X4113Y39477D01*
X4133Y39426D01*
X4151Y39372D01*
X4167Y39313D01*
X4180Y39250D01*
X4191Y39184D01*
X4198Y39115D01*
X4200Y39042D01*
Y39015D01*
X4198Y39002D01*
Y38975D01*
X4195Y38940D01*
X4191Y38900D01*
X4185Y38855D01*
X4180Y38807D01*
X4171Y38755D01*
X4160Y38702D01*
X4145Y38645D01*
X4131Y38591D01*
X4111Y38536D01*
X4089Y38482D01*
X4064Y38429D01*
X4034Y38380D01*
X4033Y38376D01*
X4027Y38369D01*
X4016Y38356D01*
X4003Y38338D01*
X3987Y38316D01*
X3965Y38292D01*
X3942Y38265D01*
X3912Y38236D01*
X3880Y38205D01*
X3845Y38174D01*
X3805Y38141D01*
X3763Y38109D01*
X3716Y38078D01*
X3667Y38047D01*
X3612Y38017D01*
X3556Y37992D01*
X3554D01*
X3552Y37990D01*
X3541Y37986D01*
X3525Y37979D01*
X3501Y37972D01*
X3472Y37961D01*
X3437Y37950D01*
X3397Y37937D01*
X3354Y37927D01*
X3305Y37914D01*
X3252Y37901D01*
X3197Y37890D01*
X3137Y37879D01*
X3077Y37872D01*
X3013Y37865D01*
X2948Y37861D01*
X2881Y37859D01*
X2879D01*
X2875D01*
X2870D01*
X2862D01*
X2853D01*
X2842Y37861D01*
X2815D01*
X2780Y37865D01*
X2740Y37866D01*
X2695Y37872D01*
X2646Y37877D01*
X2595Y37887D01*
X2540Y37896D01*
X2482Y37908D01*
X2424Y37923D01*
X2365Y37939D01*
X2307Y37959D01*
X2251Y37983D01*
X2194Y38008D01*
X2191Y38010D01*
X2182Y38016D01*
X2167Y38025D01*
X2145Y38036D01*
X2122Y38052D01*
X2094Y38070D01*
X2062Y38094D01*
X2029Y38119D01*
X1994Y38147D01*
X1956Y38179D01*
X1920Y38214D01*
X1883Y38252D01*
X1847Y38294D01*
X1812Y38338D01*
X1779Y38385D01*
X1749Y38436D01*
X1747Y38440D01*
X1741Y38449D01*
X1734Y38463D01*
X1725Y38485D01*
X1712Y38511D01*
X1699Y38542D01*
X1687Y38578D01*
X1672Y38616D01*
X1657Y38660D01*
X1645Y38707D01*
X1630Y38758D01*
X1619Y38811D01*
X1610Y38867D01*
X1603Y38926D01*
X1597Y38986D01*
X1596Y39048D01*
Y39073D01*
X1597Y39084D01*
X1599Y39111D01*
X1601Y39144D01*
X1606Y39180D01*
X1612Y39222D01*
X1619Y39270D01*
X1630Y39319D01*
X1643Y39370D01*
X1657Y39423D01*
X1678Y39475D01*
X1699Y39528D01*
X1725Y39583D01*
X1754Y39634D01*
X1788Y39683D01*
X1790Y39686D01*
X1798Y39694D01*
X1808Y39708D01*
X1825Y39725D01*
X1843Y39746D01*
X1869Y39770D01*
X1896Y39796D01*
X1929Y39825D01*
X1965Y39854D01*
X2005Y39885D01*
X2051Y39914D01*
X2098Y39943D01*
X2151Y39972D01*
X2207Y39998D01*
X2267Y40023D01*
X2331Y40043D01*
X2407Y39716D01*
X2404Y39714D01*
X2395Y39712D01*
X2382Y39707D01*
X2362Y39699D01*
X2340Y39690D01*
X2314Y39679D01*
X2285Y39665D01*
X2254Y39650D01*
X2222Y39634D01*
X2189Y39614D01*
X2156Y39594D01*
X2122Y39570D01*
X2091Y39544D01*
X2060Y39519D01*
X2032Y39490D01*
X2007Y39459D01*
X2005Y39457D01*
X2001Y39452D01*
X1996Y39443D01*
X1987Y39430D01*
X1978Y39413D01*
X1967Y39393D01*
X1956Y39370D01*
X1943Y39344D01*
X1932Y39315D01*
X1921Y39284D01*
X1911Y39250D01*
X1901Y39213D01*
X1892Y39173D01*
X1887Y39131D01*
X1883Y39088D01*
X1881Y39040D01*
Y39013D01*
X1883Y38993D01*
X1885Y38967D01*
X1889Y38938D01*
X1892Y38906D01*
X1900Y38871D01*
X1907Y38833D01*
X1916Y38795D01*
X1927Y38755D01*
X1940Y38713D01*
X1956Y38673D01*
X1976Y38633D01*
X1996Y38593D01*
X2021Y38554D01*
X2023Y38553D01*
X2027Y38545D01*
X2036Y38536D01*
X2047Y38524D01*
X2062Y38507D01*
X2078Y38489D01*
X2098Y38469D01*
X2120Y38447D01*
X2145Y38425D01*
X2173Y38401D01*
X2204Y38380D01*
X2238Y38358D01*
X2273Y38336D01*
X2311Y38316D01*
X2351Y38298D01*
X2395Y38281D01*
X2396D01*
X2406Y38278D01*
X2418Y38274D01*
X2435Y38269D01*
X2457Y38263D01*
X2482Y38256D01*
X2511Y38250D01*
X2544Y38243D01*
X2578Y38236D01*
X2617Y38229D01*
X2657Y38221D01*
X2699Y38216D01*
X2786Y38207D01*
X2831Y38205D01*
X2879Y38203D01*
X2882D01*
X2893D01*
X2910D01*
X2933Y38205D01*
X2961Y38207D01*
X2993Y38209D01*
X3030Y38210D01*
X3068Y38214D01*
X3112Y38219D01*
X3157Y38225D01*
X3250Y38243D01*
X3299Y38252D01*
X3347Y38265D01*
X3394Y38280D01*
X3439Y38296D01*
X3441Y38298D01*
X3450Y38300D01*
X3461Y38305D01*
X3478Y38314D01*
X3497Y38323D01*
X3521Y38336D01*
X3547Y38350D01*
X3574Y38367D01*
X3601Y38387D01*
X3630Y38409D01*
X3661Y38432D01*
X3690Y38458D01*
X3720Y38487D01*
X3747Y38518D01*
X3772Y38551D01*
X3796Y38587D01*
X3798Y38589D01*
X3801Y38596D01*
X3807Y38607D01*
X3814Y38622D01*
X3823Y38640D01*
X3834Y38662D01*
X3843Y38687D01*
X3854Y38715D01*
X3867Y38745D01*
X3876Y38778D01*
X3887Y38815D01*
X3896Y38851D01*
X3903Y38891D01*
X3909Y38931D01*
X3912Y38973D01*
X3914Y39015D01*
Y39028D01*
X3912Y39042D01*
Y39062D01*
X3909Y39086D01*
X3905Y39113D01*
X3902Y39146D01*
X3894Y39179D01*
X3885Y39215D01*
X3874Y39253D01*
X3861Y39293D01*
X3847Y39333D01*
X3829Y39373D01*
X3807Y39413D01*
X3781Y39452D01*
X3754Y39490D01*
X3752Y39492D01*
X3747Y39499D01*
X3738Y39508D01*
X3723Y39521D01*
X3707Y39537D01*
X3687Y39555D01*
X3661Y39575D01*
X3634Y39595D01*
X3601Y39617D01*
X3567Y39639D01*
X3527Y39663D01*
X3483Y39683D01*
X3437Y39705D01*
X3387Y39723D01*
X3334Y39739D01*
X3275Y39754D01*
X3359Y40087D01*
X3361D01*
X3365Y40085D01*
D02*
G37*
G36*
X6558Y24848D02*
X6585D01*
X6620Y24844D01*
X6660Y24842D01*
X6705Y24837D01*
X6754Y24831D01*
X6805Y24822D01*
X6860Y24813D01*
X6918Y24801D01*
X6976Y24786D01*
X7035Y24769D01*
X7093Y24749D01*
X7149Y24726D01*
X7206Y24700D01*
X7209Y24699D01*
X7218Y24693D01*
X7233Y24684D01*
X7255Y24673D01*
X7278Y24657D01*
X7306Y24638D01*
X7339Y24615D01*
X7371Y24589D01*
X7406Y24562D01*
X7444Y24529D01*
X7480Y24495D01*
X7517Y24456D01*
X7553Y24415D01*
X7588Y24371D01*
X7621Y24324D01*
X7651Y24273D01*
X7653Y24269D01*
X7659Y24260D01*
X7666Y24245D01*
X7675Y24224D01*
X7688Y24198D01*
X7701Y24167D01*
X7713Y24131D01*
X7728Y24092D01*
X7743Y24049D01*
X7755Y24002D01*
X7770Y23950D01*
X7781Y23898D01*
X7790Y23841D01*
X7797Y23783D01*
X7803Y23723D01*
X7804Y23661D01*
Y23636D01*
X7803Y23625D01*
X7801Y23597D01*
X7799Y23565D01*
X7794Y23528D01*
X7788Y23486D01*
X7781Y23439D01*
X7770Y23390D01*
X7757Y23339D01*
X7743Y23286D01*
X7722Y23233D01*
X7701Y23181D01*
X7675Y23126D01*
X7646Y23075D01*
X7611Y23026D01*
X7610Y23022D01*
X7602Y23015D01*
X7592Y23000D01*
X7575Y22984D01*
X7557Y22962D01*
X7531Y22939D01*
X7504Y22913D01*
X7471Y22884D01*
X7435Y22855D01*
X7395Y22824D01*
X7349Y22795D01*
X7302Y22766D01*
X7249Y22737D01*
X7193Y22711D01*
X7133Y22686D01*
X7069Y22666D01*
X6993Y22993D01*
X6996Y22995D01*
X7005Y22997D01*
X7018Y23002D01*
X7038Y23010D01*
X7060Y23019D01*
X7085Y23030D01*
X7115Y23044D01*
X7146Y23059D01*
X7178Y23075D01*
X7211Y23095D01*
X7244Y23115D01*
X7278Y23139D01*
X7309Y23164D01*
X7340Y23190D01*
X7368Y23219D01*
X7393Y23250D01*
X7395Y23252D01*
X7399Y23257D01*
X7404Y23266D01*
X7413Y23279D01*
X7422Y23295D01*
X7433Y23315D01*
X7444Y23339D01*
X7457Y23365D01*
X7468Y23394D01*
X7479Y23425D01*
X7490Y23459D01*
X7499Y23495D01*
X7508Y23536D01*
X7513Y23577D01*
X7517Y23621D01*
X7519Y23668D01*
Y23696D01*
X7517Y23716D01*
X7515Y23741D01*
X7511Y23770D01*
X7508Y23803D01*
X7501Y23838D01*
X7493Y23876D01*
X7484Y23914D01*
X7473Y23954D01*
X7460Y23996D01*
X7444Y24036D01*
X7424Y24076D01*
X7404Y24116D01*
X7378Y24154D01*
X7377Y24156D01*
X7373Y24163D01*
X7364Y24173D01*
X7353Y24185D01*
X7339Y24202D01*
X7322Y24220D01*
X7302Y24240D01*
X7280Y24262D01*
X7255Y24284D01*
X7227Y24307D01*
X7197Y24329D01*
X7162Y24351D01*
X7127Y24373D01*
X7089Y24393D01*
X7049Y24411D01*
X7005Y24427D01*
X7004D01*
X6995Y24431D01*
X6982Y24435D01*
X6965Y24440D01*
X6944Y24446D01*
X6918Y24453D01*
X6889Y24458D01*
X6856Y24466D01*
X6822Y24473D01*
X6783Y24480D01*
X6743Y24487D01*
X6701Y24493D01*
X6614Y24502D01*
X6569Y24504D01*
X6521Y24506D01*
X6518D01*
X6507D01*
X6490D01*
X6467Y24504D01*
X6439Y24502D01*
X6407Y24500D01*
X6370Y24498D01*
X6332Y24495D01*
X6288Y24489D01*
X6243Y24484D01*
X6150Y24466D01*
X6101Y24456D01*
X6054Y24444D01*
X6006Y24429D01*
X5961Y24413D01*
X5959Y24411D01*
X5950Y24409D01*
X5939Y24404D01*
X5923Y24395D01*
X5903Y24385D01*
X5879Y24373D01*
X5853Y24358D01*
X5826Y24342D01*
X5799Y24322D01*
X5770Y24300D01*
X5739Y24276D01*
X5710Y24251D01*
X5680Y24222D01*
X5653Y24191D01*
X5628Y24158D01*
X5604Y24122D01*
X5602Y24120D01*
X5599Y24113D01*
X5593Y24102D01*
X5586Y24087D01*
X5577Y24069D01*
X5566Y24047D01*
X5557Y24022D01*
X5546Y23994D01*
X5533Y23963D01*
X5524Y23931D01*
X5513Y23894D01*
X5504Y23858D01*
X5497Y23818D01*
X5491Y23778D01*
X5488Y23736D01*
X5486Y23694D01*
Y23681D01*
X5488Y23667D01*
Y23647D01*
X5491Y23623D01*
X5495Y23596D01*
X5499Y23563D01*
X5506Y23530D01*
X5515Y23494D01*
X5526Y23456D01*
X5539Y23415D01*
X5553Y23375D01*
X5571Y23335D01*
X5593Y23295D01*
X5619Y23257D01*
X5646Y23219D01*
X5648Y23217D01*
X5653Y23210D01*
X5662Y23201D01*
X5677Y23188D01*
X5693Y23172D01*
X5713Y23153D01*
X5739Y23133D01*
X5766Y23113D01*
X5799Y23091D01*
X5833Y23070D01*
X5873Y23046D01*
X5917Y23026D01*
X5963Y23004D01*
X6013Y22986D01*
X6066Y22970D01*
X6125Y22955D01*
X6041Y22622D01*
X6039D01*
X6035Y22624D01*
X6030Y22626D01*
X6023Y22627D01*
X6013Y22629D01*
X6001Y22633D01*
X5974Y22642D01*
X5939Y22655D01*
X5901Y22669D01*
X5857Y22687D01*
X5810Y22709D01*
X5759Y22733D01*
X5708Y22760D01*
X5657Y22791D01*
X5604Y22826D01*
X5553Y22864D01*
X5504Y22906D01*
X5458Y22951D01*
X5415Y23000D01*
X5413Y23004D01*
X5406Y23013D01*
X5395Y23028D01*
X5382Y23050D01*
X5366Y23075D01*
X5347Y23108D01*
X5327Y23144D01*
X5307Y23186D01*
X5287Y23232D01*
X5267Y23283D01*
X5249Y23337D01*
X5233Y23395D01*
X5220Y23459D01*
X5209Y23525D01*
X5202Y23594D01*
X5200Y23667D01*
Y23694D01*
X5202Y23707D01*
Y23734D01*
X5206Y23768D01*
X5209Y23809D01*
X5215Y23854D01*
X5220Y23901D01*
X5229Y23954D01*
X5240Y24007D01*
X5255Y24063D01*
X5269Y24118D01*
X5289Y24173D01*
X5311Y24227D01*
X5336Y24280D01*
X5366Y24329D01*
X5367Y24333D01*
X5373Y24340D01*
X5384Y24353D01*
X5397Y24371D01*
X5413Y24393D01*
X5435Y24416D01*
X5458Y24444D01*
X5488Y24473D01*
X5520Y24504D01*
X5555Y24535D01*
X5595Y24567D01*
X5637Y24600D01*
X5684Y24631D01*
X5733Y24662D01*
X5788Y24691D01*
X5844Y24717D01*
X5846D01*
X5848Y24719D01*
X5859Y24722D01*
X5875Y24730D01*
X5899Y24737D01*
X5928Y24748D01*
X5963Y24759D01*
X6003Y24771D01*
X6046Y24782D01*
X6095Y24795D01*
X6148Y24808D01*
X6203Y24819D01*
X6263Y24830D01*
X6323Y24837D01*
X6387Y24844D01*
X6452Y24848D01*
X6520Y24850D01*
X6521D01*
X6525D01*
X6530D01*
X6538D01*
X6547D01*
X6558Y24848D01*
D02*
G37*
G36*
X6469Y22349D02*
X6489D01*
X6512Y22347D01*
X6539D01*
X6567Y22345D01*
X6600Y22342D01*
X6632Y22340D01*
X6669Y22336D01*
X6743Y22329D01*
X6825Y22316D01*
X6911Y22303D01*
X7000Y22285D01*
X7087Y22263D01*
X7175Y22238D01*
X7260Y22207D01*
X7340Y22171D01*
X7378Y22151D01*
X7413Y22129D01*
X7448Y22105D01*
X7480Y22081D01*
X7484Y22078D01*
X7493Y22071D01*
X7508Y22058D01*
X7526Y22038D01*
X7548Y22014D01*
X7571Y21987D01*
X7599Y21952D01*
X7626Y21914D01*
X7651Y21870D01*
X7679Y21823D01*
X7702Y21772D01*
X7724Y21716D01*
X7743Y21654D01*
X7757Y21590D01*
X7766Y21521D01*
X7770Y21448D01*
Y21435D01*
X7768Y21419D01*
Y21399D01*
X7764Y21373D01*
X7761Y21344D01*
X7755Y21312D01*
X7750Y21275D01*
X7741Y21239D01*
X7730Y21199D01*
X7715Y21159D01*
X7699Y21119D01*
X7681Y21077D01*
X7657Y21037D01*
X7632Y20999D01*
X7602Y20962D01*
X7601Y20960D01*
X7595Y20953D01*
X7584Y20944D01*
X7571Y20931D01*
X7555Y20917D01*
X7533Y20900D01*
X7510Y20882D01*
X7482Y20862D01*
X7451Y20842D01*
X7417Y20822D01*
X7378Y20802D01*
X7337Y20786D01*
X7293Y20767D01*
X7246Y20753D01*
X7195Y20742D01*
X7142Y20733D01*
X7118Y21040D01*
X7120D01*
X7126Y21042D01*
X7136Y21044D01*
X7147Y21048D01*
X7164Y21053D01*
X7180Y21057D01*
X7220Y21071D01*
X7262Y21088D01*
X7306Y21108D01*
X7348Y21131D01*
X7366Y21144D01*
X7382Y21159D01*
X7384Y21160D01*
X7388Y21164D01*
X7395Y21171D01*
X7402Y21181D01*
X7413Y21193D01*
X7424Y21208D01*
X7437Y21224D01*
X7450Y21244D01*
X7460Y21266D01*
X7473Y21290D01*
X7484Y21313D01*
X7495Y21341D01*
X7502Y21370D01*
X7510Y21401D01*
X7513Y21433D01*
X7515Y21466D01*
Y21481D01*
X7513Y21492D01*
Y21504D01*
X7511Y21519D01*
X7508Y21535D01*
X7504Y21555D01*
X7495Y21595D01*
X7480Y21639D01*
X7459Y21683D01*
X7446Y21705D01*
X7431Y21726D01*
X7429Y21728D01*
X7426Y21732D01*
X7420Y21741D01*
X7411Y21750D01*
X7400Y21763D01*
X7388Y21777D01*
X7371Y21792D01*
X7353Y21810D01*
X7333Y21828D01*
X7309Y21847D01*
X7284Y21867D01*
X7257Y21885D01*
X7226Y21905D01*
X7193Y21923D01*
X7158Y21941D01*
X7122Y21958D01*
X7120D01*
X7113Y21961D01*
X7100Y21965D01*
X7084Y21970D01*
X7064Y21978D01*
X7038Y21985D01*
X7007Y21992D01*
X6973Y22000D01*
X6934Y22007D01*
X6891Y22016D01*
X6842Y22023D01*
X6791Y22029D01*
X6734Y22034D01*
X6674Y22039D01*
X6609Y22041D01*
X6539Y22043D01*
X6541Y22041D01*
X6547Y22038D01*
X6556Y22032D01*
X6567Y22023D01*
X6581Y22012D01*
X6598Y22000D01*
X6616Y21985D01*
X6636Y21967D01*
X6656Y21948D01*
X6676Y21928D01*
X6718Y21881D01*
X6758Y21830D01*
X6776Y21801D01*
X6792Y21772D01*
X6794Y21770D01*
X6796Y21765D01*
X6800Y21756D01*
X6805Y21745D01*
X6813Y21728D01*
X6820Y21712D01*
X6827Y21692D01*
X6834Y21668D01*
X6842Y21645D01*
X6849Y21617D01*
X6864Y21561D01*
X6873Y21497D01*
X6876Y21464D01*
Y21417D01*
X6874Y21401D01*
X6873Y21381D01*
X6869Y21353D01*
X6864Y21322D01*
X6856Y21288D01*
X6847Y21250D01*
X6836Y21210D01*
X6820Y21168D01*
X6802Y21124D01*
X6780Y21079D01*
X6752Y21035D01*
X6723Y20991D01*
X6687Y20947D01*
X6647Y20906D01*
X6645Y20904D01*
X6636Y20897D01*
X6623Y20886D01*
X6605Y20871D01*
X6583Y20855D01*
X6556Y20836D01*
X6525Y20817D01*
X6489Y20797D01*
X6448Y20776D01*
X6403Y20756D01*
X6356Y20738D01*
X6303Y20722D01*
X6247Y20707D01*
X6188Y20696D01*
X6125Y20689D01*
X6059Y20687D01*
X6057D01*
X6048D01*
X6035D01*
X6019Y20689D01*
X5997Y20691D01*
X5974Y20693D01*
X5946Y20696D01*
X5915Y20700D01*
X5883Y20706D01*
X5848Y20713D01*
X5812Y20720D01*
X5773Y20731D01*
X5735Y20744D01*
X5697Y20756D01*
X5657Y20773D01*
X5619Y20791D01*
X5617Y20793D01*
X5610Y20797D01*
X5599Y20802D01*
X5586Y20809D01*
X5568Y20820D01*
X5548Y20833D01*
X5528Y20847D01*
X5504Y20864D01*
X5478Y20884D01*
X5453Y20904D01*
X5427Y20928D01*
X5402Y20953D01*
X5376Y20978D01*
X5351Y21008D01*
X5329Y21038D01*
X5307Y21071D01*
X5306Y21073D01*
X5302Y21079D01*
X5298Y21090D01*
X5291Y21102D01*
X5282Y21120D01*
X5273Y21140D01*
X5264Y21162D01*
X5255Y21190D01*
X5244Y21217D01*
X5235Y21248D01*
X5226Y21282D01*
X5216Y21317D01*
X5209Y21355D01*
X5206Y21393D01*
X5202Y21435D01*
X5200Y21477D01*
Y21494D01*
X5202Y21503D01*
Y21513D01*
X5204Y21541D01*
X5209Y21574D01*
X5215Y21612D01*
X5224Y21654D01*
X5236Y21701D01*
X5251Y21750D01*
X5269Y21801D01*
X5293Y21852D01*
X5320Y21905D01*
X5353Y21958D01*
X5391Y22010D01*
X5435Y22060D01*
X5484Y22107D01*
X5488Y22109D01*
X5497Y22118D01*
X5515Y22129D01*
X5539Y22145D01*
X5570Y22163D01*
X5588Y22174D01*
X5608Y22183D01*
X5630Y22194D01*
X5653Y22205D01*
X5680Y22218D01*
X5708Y22229D01*
X5737Y22240D01*
X5768Y22251D01*
X5802Y22263D01*
X5837Y22274D01*
X5875Y22283D01*
X5913Y22294D01*
X5955Y22303D01*
X5999Y22312D01*
X6044Y22322D01*
X6092Y22329D01*
X6141Y22334D01*
X6192Y22340D01*
X6247Y22345D01*
X6301Y22347D01*
X6359Y22351D01*
X6419D01*
X6421D01*
X6429D01*
X6438D01*
X6452D01*
X6469Y22349D01*
D02*
G37*
G36*
X50098Y62326D02*
X50124Y62324D01*
X50155Y62322D01*
X50189Y62317D01*
X50230Y62312D01*
X50271Y62303D01*
X50317Y62292D01*
X50362Y62279D01*
X50411Y62262D01*
X50459Y62242D01*
X50506Y62219D01*
X50552Y62193D01*
X50595Y62162D01*
X50637Y62126D01*
X50639Y62124D01*
X50646Y62117D01*
X50657Y62106D01*
X50670Y62090D01*
X50686Y62071D01*
X50704Y62048D01*
X50725Y62020D01*
X50744Y61989D01*
X50763Y61955D01*
X50783Y61917D01*
X50801Y61875D01*
X50817Y61831D01*
X50830Y61784D01*
X50841Y61735D01*
X50848Y61682D01*
X50850Y61627D01*
Y61625D01*
Y61620D01*
Y61613D01*
Y61602D01*
X50848Y61587D01*
X50846Y61573D01*
X50845Y61554D01*
X50843Y61535D01*
X50836Y61489D01*
X50825Y61438D01*
X50808Y61385D01*
X50788Y61331D01*
Y61329D01*
X50785Y61323D01*
X50781Y61316D01*
X50775Y61305D01*
X50770Y61292D01*
X50761Y61276D01*
X50752Y61258D01*
X50739Y61238D01*
X50726Y61216D01*
X50712Y61192D01*
X50675Y61140D01*
X50655Y61112D01*
X50634Y61083D01*
X50608Y61054D01*
X50583Y61023D01*
X50581Y61021D01*
X50575Y61016D01*
X50568Y61007D01*
X50555Y60994D01*
X50539Y60978D01*
X50519Y60957D01*
X50497Y60934D01*
X50470Y60907D01*
X50439Y60877D01*
X50402Y60845D01*
X50364Y60808D01*
X50321Y60768D01*
X50273Y60726D01*
X50222Y60681D01*
X50166Y60632D01*
X50106Y60581D01*
X50102Y60579D01*
X50093Y60570D01*
X50080Y60559D01*
X50062Y60543D01*
X50038Y60524D01*
X50015Y60502D01*
X49987Y60479D01*
X49958Y60453D01*
X49896Y60401D01*
X49867Y60373D01*
X49838Y60348D01*
X49811Y60322D01*
X49787Y60300D01*
X49765Y60281D01*
X49749Y60262D01*
X49745Y60259D01*
X49736Y60248D01*
X49722Y60231D01*
X49703Y60211D01*
X49683Y60186D01*
X49662Y60158D01*
X49640Y60128D01*
X49620Y60097D01*
X50854D01*
Y59800D01*
X49190D01*
Y59802D01*
Y59806D01*
Y59811D01*
Y59818D01*
Y59829D01*
X49192Y59840D01*
X49194Y59869D01*
X49198Y59900D01*
X49203Y59936D01*
X49212Y59975D01*
X49225Y60013D01*
Y60015D01*
X49229Y60020D01*
X49232Y60029D01*
X49238Y60042D01*
X49243Y60058D01*
X49252Y60077D01*
X49263Y60097D01*
X49274Y60119D01*
X49287Y60144D01*
X49303Y60170D01*
X49338Y60226D01*
X49380Y60286D01*
X49429Y60348D01*
X49431Y60350D01*
X49436Y60355D01*
X49443Y60364D01*
X49454Y60377D01*
X49469Y60393D01*
X49487Y60412D01*
X49507Y60433D01*
X49532Y60457D01*
X49560Y60484D01*
X49589Y60513D01*
X49622Y60544D01*
X49658Y60579D01*
X49698Y60614D01*
X49740Y60650D01*
X49785Y60688D01*
X49833Y60728D01*
X49834Y60730D01*
X49838Y60732D01*
X49844Y60737D01*
X49851Y60743D01*
X49860Y60752D01*
X49871Y60761D01*
X49898Y60785D01*
X49933Y60812D01*
X49969Y60847D01*
X50011Y60883D01*
X50055Y60923D01*
X50102Y60965D01*
X50148Y61009D01*
X50195Y61052D01*
X50239Y61098D01*
X50282Y61141D01*
X50321Y61183D01*
X50357Y61225D01*
X50386Y61263D01*
X50388Y61265D01*
X50392Y61272D01*
X50399Y61283D01*
X50410Y61296D01*
X50421Y61314D01*
X50432Y61334D01*
X50446Y61358D01*
X50459Y61383D01*
X50472Y61411D01*
X50486Y61440D01*
X50510Y61503D01*
X50519Y61536D01*
X50526Y61569D01*
X50530Y61602D01*
X50532Y61635D01*
Y61636D01*
Y61644D01*
Y61653D01*
X50530Y61665D01*
X50528Y61682D01*
X50524Y61700D01*
X50521Y61720D01*
X50515Y61742D01*
X50508Y61766D01*
X50499Y61791D01*
X50488Y61817D01*
X50475Y61842D01*
X50461Y61869D01*
X50442Y61895D01*
X50422Y61920D01*
X50399Y61944D01*
X50397Y61946D01*
X50393Y61949D01*
X50386Y61955D01*
X50375Y61964D01*
X50362Y61973D01*
X50346Y61984D01*
X50328Y61997D01*
X50308Y62008D01*
X50284Y62020D01*
X50259Y62031D01*
X50230Y62042D01*
X50200Y62051D01*
X50168Y62060D01*
X50133Y62066D01*
X50097Y62069D01*
X50058Y62071D01*
X50037D01*
X50022Y62069D01*
X50002Y62068D01*
X49980Y62064D01*
X49957Y62060D01*
X49929Y62055D01*
X49902Y62048D01*
X49873Y62039D01*
X49844Y62028D01*
X49813Y62015D01*
X49784Y61999D01*
X49755Y61980D01*
X49725Y61960D01*
X49700Y61937D01*
X49698Y61935D01*
X49694Y61931D01*
X49687Y61922D01*
X49680Y61913D01*
X49669Y61898D01*
X49658Y61882D01*
X49645Y61862D01*
X49634Y61840D01*
X49622Y61817D01*
X49609Y61787D01*
X49598Y61758D01*
X49587Y61726D01*
X49580Y61689D01*
X49573Y61651D01*
X49569Y61611D01*
X49567Y61567D01*
X49248Y61600D01*
Y61602D01*
Y61604D01*
X49250Y61609D01*
Y61616D01*
X49252Y61635D01*
X49258Y61658D01*
X49263Y61687D01*
X49270Y61722D01*
X49279Y61760D01*
X49290Y61800D01*
X49305Y61844D01*
X49321Y61888D01*
X49341Y61933D01*
X49365Y61979D01*
X49391Y62022D01*
X49421Y62064D01*
X49454Y62104D01*
X49492Y62141D01*
X49494Y62142D01*
X49501Y62148D01*
X49514Y62159D01*
X49531Y62170D01*
X49552Y62184D01*
X49578Y62201D01*
X49609Y62217D01*
X49643Y62235D01*
X49683Y62252D01*
X49725Y62268D01*
X49773Y62284D01*
X49824Y62299D01*
X49878Y62312D01*
X49937Y62321D01*
X49998Y62326D01*
X50064Y62328D01*
X50080D01*
X50098Y62326D01*
D02*
G37*
G36*
X47989Y62317D02*
X48018D01*
X48051Y62315D01*
X48085Y62313D01*
X48126Y62310D01*
X48166Y62306D01*
X48208Y62303D01*
X48293Y62290D01*
X48333Y62283D01*
X48373Y62273D01*
X48411Y62262D01*
X48446Y62250D01*
X48448D01*
X48453Y62246D01*
X48462Y62242D01*
X48475Y62237D01*
X48490Y62230D01*
X48506Y62219D01*
X48526Y62208D01*
X48546Y62195D01*
X48568Y62179D01*
X48592Y62162D01*
X48615Y62142D01*
X48639Y62120D01*
X48661Y62095D01*
X48684Y62069D01*
X48706Y62040D01*
X48726Y62010D01*
X48728Y62008D01*
X48732Y62002D01*
X48735Y61993D01*
X48742Y61980D01*
X48750Y61964D01*
X48759Y61944D01*
X48770Y61922D01*
X48779Y61898D01*
X48788Y61871D01*
X48799Y61842D01*
X48808Y61811D01*
X48815Y61778D01*
X48823Y61744D01*
X48828Y61707D01*
X48830Y61669D01*
X48832Y61631D01*
Y61627D01*
Y61620D01*
X48830Y61605D01*
Y61585D01*
X48826Y61564D01*
X48823Y61536D01*
X48817Y61507D01*
X48810Y61474D01*
X48801Y61440D01*
X48790Y61403D01*
X48775Y61365D01*
X48759Y61327D01*
X48739Y61289D01*
X48715Y61252D01*
X48688Y61214D01*
X48657Y61180D01*
X48655Y61178D01*
X48650Y61172D01*
X48639Y61163D01*
X48624Y61150D01*
X48606Y61136D01*
X48582Y61120D01*
X48557Y61101D01*
X48526Y61081D01*
X48490Y61061D01*
X48451Y61041D01*
X48406Y61023D01*
X48359Y61003D01*
X48306Y60987D01*
X48249Y60970D01*
X48187Y60957D01*
X48122Y60947D01*
X48124D01*
X48127Y60943D01*
X48135Y60941D01*
X48144Y60936D01*
X48155Y60930D01*
X48167Y60923D01*
X48197Y60907D01*
X48229Y60888D01*
X48262Y60866D01*
X48293Y60845D01*
X48322Y60821D01*
X48324Y60819D01*
X48329Y60816D01*
X48337Y60807D01*
X48348Y60797D01*
X48360Y60783D01*
X48375Y60768D01*
X48393Y60750D01*
X48411Y60728D01*
X48431Y60704D01*
X48453Y60679D01*
X48477Y60652D01*
X48500Y60623D01*
X48524Y60590D01*
X48550Y60557D01*
X48599Y60484D01*
X49034Y59800D01*
X48617D01*
X48284Y60324D01*
X48282Y60326D01*
X48277Y60333D01*
X48269Y60346D01*
X48260Y60361D01*
X48248Y60381D01*
X48233Y60402D01*
X48217Y60426D01*
X48200Y60452D01*
X48162Y60508D01*
X48122Y60566D01*
X48082Y60621D01*
X48062Y60646D01*
X48044Y60670D01*
X48042Y60672D01*
X48040Y60675D01*
X48035Y60681D01*
X48027Y60690D01*
X48009Y60712D01*
X47987Y60737D01*
X47960Y60765D01*
X47933Y60794D01*
X47903Y60819D01*
X47874Y60839D01*
X47871Y60841D01*
X47862Y60847D01*
X47847Y60856D01*
X47827Y60865D01*
X47805Y60876D01*
X47780Y60888D01*
X47752Y60897D01*
X47723Y60907D01*
X47721D01*
X47712Y60908D01*
X47698Y60910D01*
X47680Y60914D01*
X47654Y60916D01*
X47621Y60918D01*
X47583Y60919D01*
X47152D01*
Y59800D01*
X46819D01*
Y62319D01*
X47967D01*
X47989Y62317D01*
D02*
G37*
G36*
X40883Y30142D02*
X38914D01*
X38916Y30140D01*
X38920Y30136D01*
X38925Y30131D01*
X38932Y30122D01*
X38941Y30111D01*
X38954Y30096D01*
X38967Y30080D01*
X38981Y30064D01*
X38996Y30042D01*
X39014Y30020D01*
X39031Y29996D01*
X39051Y29971D01*
X39069Y29942D01*
X39089Y29912D01*
X39129Y29847D01*
X39131Y29845D01*
X39134Y29840D01*
X39140Y29829D01*
X39145Y29816D01*
X39154Y29801D01*
X39165Y29783D01*
X39176Y29761D01*
X39189Y29740D01*
X39214Y29689D01*
X39240Y29634D01*
X39265Y29578D01*
X39287Y29523D01*
X38989D01*
X38987Y29527D01*
X38983Y29534D01*
X38976Y29548D01*
X38967Y29567D01*
X38956Y29588D01*
X38941Y29616D01*
X38925Y29645D01*
X38907Y29676D01*
X38885Y29711D01*
X38863Y29747D01*
X38812Y29823D01*
X38756Y29902D01*
X38694Y29976D01*
X38692Y29978D01*
X38687Y29985D01*
X38677Y29994D01*
X38665Y30007D01*
X38648Y30024D01*
X38630Y30042D01*
X38608Y30062D01*
X38587Y30084D01*
X38561Y30105D01*
X38534Y30129D01*
X38477Y30175D01*
X38417Y30216D01*
X38386Y30235D01*
X38355Y30251D01*
Y30451D01*
X40883D01*
Y30142D01*
D02*
G37*
G36*
X40090Y29001D02*
X40095Y28999D01*
X40103Y28997D01*
X40112Y28995D01*
X40124Y28992D01*
X40152Y28982D01*
X40186Y28970D01*
X40224Y28955D01*
X40268Y28937D01*
X40315Y28915D01*
X40367Y28892D01*
X40417Y28864D01*
X40468Y28833D01*
X40521Y28799D01*
X40572Y28760D01*
X40621Y28719D01*
X40667Y28673D01*
X40710Y28624D01*
X40712Y28620D01*
X40720Y28611D01*
X40731Y28597D01*
X40743Y28575D01*
X40760Y28549D01*
X40778Y28517D01*
X40798Y28480D01*
X40818Y28438D01*
X40838Y28393D01*
X40858Y28342D01*
X40876Y28287D01*
X40892Y28229D01*
X40905Y28165D01*
X40916Y28100D01*
X40923Y28031D01*
X40925Y27958D01*
Y27931D01*
X40923Y27918D01*
Y27891D01*
X40920Y27856D01*
X40916Y27816D01*
X40911Y27770D01*
X40905Y27723D01*
X40896Y27670D01*
X40885Y27617D01*
X40871Y27561D01*
X40856Y27506D01*
X40836Y27452D01*
X40814Y27397D01*
X40789Y27345D01*
X40760Y27295D01*
X40758Y27292D01*
X40752Y27284D01*
X40741Y27272D01*
X40729Y27253D01*
X40712Y27232D01*
X40690Y27208D01*
X40667Y27181D01*
X40638Y27152D01*
X40605Y27121D01*
X40570Y27090D01*
X40530Y27057D01*
X40488Y27024D01*
X40441Y26993D01*
X40392Y26962D01*
X40337Y26933D01*
X40281Y26908D01*
X40279D01*
X40277Y26906D01*
X40266Y26902D01*
X40250Y26895D01*
X40226Y26888D01*
X40197Y26877D01*
X40163Y26866D01*
X40123Y26853D01*
X40079Y26842D01*
X40030Y26829D01*
X39977Y26817D01*
X39922Y26806D01*
X39862Y26795D01*
X39802Y26787D01*
X39739Y26780D01*
X39673Y26777D01*
X39606Y26775D01*
X39604D01*
X39600D01*
X39595D01*
X39588D01*
X39578D01*
X39568Y26777D01*
X39540D01*
X39506Y26780D01*
X39466Y26782D01*
X39420Y26787D01*
X39371Y26793D01*
X39320Y26802D01*
X39265Y26811D01*
X39207Y26824D01*
X39149Y26838D01*
X39091Y26855D01*
X39032Y26875D01*
X38976Y26899D01*
X38920Y26924D01*
X38916Y26926D01*
X38907Y26931D01*
X38892Y26940D01*
X38870Y26951D01*
X38847Y26968D01*
X38820Y26986D01*
X38787Y27010D01*
X38754Y27035D01*
X38719Y27062D01*
X38681Y27095D01*
X38645Y27130D01*
X38608Y27168D01*
X38572Y27210D01*
X38537Y27253D01*
X38505Y27301D01*
X38474Y27352D01*
X38472Y27355D01*
X38466Y27365D01*
X38459Y27379D01*
X38450Y27401D01*
X38437Y27426D01*
X38425Y27457D01*
X38412Y27494D01*
X38397Y27532D01*
X38383Y27576D01*
X38370Y27623D01*
X38355Y27674D01*
X38344Y27727D01*
X38335Y27783D01*
X38328Y27841D01*
X38323Y27901D01*
X38321Y27963D01*
Y27989D01*
X38323Y28000D01*
X38324Y28027D01*
X38326Y28060D01*
X38332Y28096D01*
X38337Y28138D01*
X38344Y28185D01*
X38355Y28234D01*
X38368Y28285D01*
X38383Y28338D01*
X38403Y28391D01*
X38425Y28444D01*
X38450Y28498D01*
X38479Y28549D01*
X38514Y28598D01*
X38515Y28602D01*
X38523Y28609D01*
X38534Y28624D01*
X38550Y28640D01*
X38568Y28662D01*
X38594Y28686D01*
X38621Y28711D01*
X38654Y28740D01*
X38690Y28769D01*
X38730Y28800D01*
X38776Y28830D01*
X38823Y28859D01*
X38876Y28888D01*
X38932Y28913D01*
X38992Y28939D01*
X39056Y28959D01*
X39132Y28631D01*
X39129Y28629D01*
X39120Y28628D01*
X39107Y28622D01*
X39087Y28615D01*
X39065Y28606D01*
X39040Y28595D01*
X39011Y28580D01*
X38980Y28566D01*
X38947Y28549D01*
X38914Y28529D01*
X38881Y28509D01*
X38847Y28486D01*
X38816Y28460D01*
X38785Y28435D01*
X38758Y28405D01*
X38732Y28375D01*
X38730Y28373D01*
X38727Y28367D01*
X38721Y28358D01*
X38712Y28346D01*
X38703Y28329D01*
X38692Y28309D01*
X38681Y28285D01*
X38668Y28260D01*
X38658Y28231D01*
X38647Y28200D01*
X38636Y28165D01*
X38627Y28129D01*
X38617Y28089D01*
X38612Y28047D01*
X38608Y28003D01*
X38607Y27956D01*
Y27929D01*
X38608Y27909D01*
X38610Y27883D01*
X38614Y27854D01*
X38617Y27821D01*
X38625Y27787D01*
X38632Y27749D01*
X38641Y27710D01*
X38652Y27670D01*
X38665Y27628D01*
X38681Y27588D01*
X38701Y27548D01*
X38721Y27508D01*
X38747Y27470D01*
X38748Y27468D01*
X38752Y27461D01*
X38761Y27452D01*
X38772Y27439D01*
X38787Y27423D01*
X38803Y27404D01*
X38823Y27384D01*
X38845Y27363D01*
X38870Y27341D01*
X38898Y27317D01*
X38929Y27295D01*
X38963Y27273D01*
X38998Y27252D01*
X39036Y27232D01*
X39076Y27213D01*
X39120Y27197D01*
X39122D01*
X39131Y27193D01*
X39143Y27190D01*
X39160Y27184D01*
X39182Y27179D01*
X39207Y27172D01*
X39236Y27166D01*
X39269Y27159D01*
X39304Y27152D01*
X39342Y27144D01*
X39382Y27137D01*
X39424Y27132D01*
X39511Y27122D01*
X39557Y27121D01*
X39604Y27119D01*
X39608D01*
X39618D01*
X39635D01*
X39658Y27121D01*
X39686Y27122D01*
X39718Y27124D01*
X39755Y27126D01*
X39793Y27130D01*
X39837Y27135D01*
X39882Y27141D01*
X39975Y27159D01*
X40024Y27168D01*
X40072Y27181D01*
X40119Y27195D01*
X40164Y27212D01*
X40166Y27213D01*
X40175Y27215D01*
X40186Y27221D01*
X40203Y27230D01*
X40223Y27239D01*
X40246Y27252D01*
X40272Y27266D01*
X40299Y27283D01*
X40326Y27303D01*
X40356Y27324D01*
X40387Y27348D01*
X40416Y27374D01*
X40445Y27403D01*
X40472Y27434D01*
X40497Y27466D01*
X40521Y27503D01*
X40523Y27505D01*
X40527Y27512D01*
X40532Y27523D01*
X40539Y27537D01*
X40549Y27556D01*
X40559Y27577D01*
X40569Y27603D01*
X40579Y27630D01*
X40592Y27661D01*
X40601Y27694D01*
X40612Y27730D01*
X40621Y27767D01*
X40628Y27807D01*
X40634Y27847D01*
X40638Y27889D01*
X40639Y27931D01*
Y27943D01*
X40638Y27958D01*
Y27978D01*
X40634Y28001D01*
X40630Y28029D01*
X40627Y28062D01*
X40619Y28094D01*
X40610Y28131D01*
X40599Y28169D01*
X40587Y28209D01*
X40572Y28249D01*
X40554Y28289D01*
X40532Y28329D01*
X40507Y28367D01*
X40479Y28405D01*
X40477Y28407D01*
X40472Y28415D01*
X40463Y28424D01*
X40448Y28436D01*
X40432Y28453D01*
X40412Y28471D01*
X40387Y28491D01*
X40359Y28511D01*
X40326Y28533D01*
X40292Y28555D01*
X40252Y28578D01*
X40208Y28598D01*
X40163Y28620D01*
X40112Y28638D01*
X40059Y28655D01*
X40001Y28669D01*
X40084Y29002D01*
X40086D01*
X40090Y29001D01*
D02*
G37*
%LPC*%
G36*
X57036Y53415D02*
X57020D01*
X57007Y53413D01*
X56992Y53411D01*
X56974Y53410D01*
X56954Y53406D01*
X56934Y53400D01*
X56887Y53388D01*
X56863Y53379D01*
X56838Y53366D01*
X56814Y53353D01*
X56788Y53339D01*
X56765Y53320D01*
X56743Y53300D01*
X56741Y53299D01*
X56738Y53295D01*
X56732Y53290D01*
X56725Y53280D01*
X56716Y53269D01*
X56707Y53257D01*
X56696Y53242D01*
X56687Y53224D01*
X56676Y53206D01*
X56665Y53186D01*
X56647Y53138D01*
X56639Y53115D01*
X56634Y53087D01*
X56630Y53060D01*
X56628Y53031D01*
Y53029D01*
Y53024D01*
Y53015D01*
X56630Y53002D01*
X56632Y52986D01*
X56634Y52969D01*
X56638Y52949D01*
X56643Y52927D01*
X56656Y52882D01*
X56665Y52858D01*
X56676Y52833D01*
X56688Y52809D01*
X56705Y52785D01*
X56721Y52762D01*
X56741Y52740D01*
X56743Y52738D01*
X56747Y52734D01*
X56754Y52729D01*
X56761Y52722D01*
X56774Y52714D01*
X56787Y52703D01*
X56803Y52694D01*
X56821Y52683D01*
X56841Y52672D01*
X56865Y52663D01*
X56889Y52653D01*
X56916Y52645D01*
X56943Y52638D01*
X56974Y52632D01*
X57007Y52629D01*
X57040Y52627D01*
X57056D01*
X57069Y52629D01*
X57085Y52631D01*
X57102Y52632D01*
X57122Y52636D01*
X57143Y52641D01*
X57189Y52654D01*
X57213Y52663D01*
X57238Y52674D01*
X57262Y52687D01*
X57285Y52702D01*
X57309Y52718D01*
X57331Y52738D01*
X57333Y52740D01*
X57336Y52744D01*
X57342Y52749D01*
X57349Y52758D01*
X57358Y52769D01*
X57367Y52782D01*
X57378Y52798D01*
X57389Y52814D01*
X57398Y52834D01*
X57409Y52855D01*
X57427Y52902D01*
X57435Y52927D01*
X57440Y52955D01*
X57444Y52984D01*
X57446Y53013D01*
Y53015D01*
Y53020D01*
Y53029D01*
X57444Y53042D01*
X57442Y53057D01*
X57440Y53073D01*
X57437Y53091D01*
X57431Y53113D01*
X57416Y53157D01*
X57407Y53180D01*
X57396Y53206D01*
X57382Y53229D01*
X57366Y53253D01*
X57347Y53277D01*
X57327Y53299D01*
X57325Y53300D01*
X57322Y53304D01*
X57314Y53310D01*
X57307Y53317D01*
X57294Y53326D01*
X57282Y53335D01*
X57265Y53346D01*
X57247Y53357D01*
X57227Y53368D01*
X57205Y53379D01*
X57182Y53388D01*
X57156Y53397D01*
X57127Y53404D01*
X57098Y53410D01*
X57069Y53413D01*
X57036Y53415D01*
D02*
G37*
G36*
X57029Y52374D02*
X57007D01*
X56992Y52372D01*
X56974Y52370D01*
X56952Y52367D01*
X56929Y52361D01*
X56901Y52356D01*
X56874Y52349D01*
X56845Y52339D01*
X56816Y52327D01*
X56785Y52312D01*
X56754Y52296D01*
X56725Y52276D01*
X56696Y52254D01*
X56668Y52228D01*
X56667Y52227D01*
X56663Y52221D01*
X56656Y52214D01*
X56647Y52203D01*
X56636Y52188D01*
X56623Y52172D01*
X56610Y52152D01*
X56597Y52130D01*
X56585Y52105D01*
X56572Y52077D01*
X56559Y52048D01*
X56548Y52016D01*
X56539Y51981D01*
X56532Y51946D01*
X56528Y51908D01*
X56526Y51868D01*
Y51866D01*
Y51863D01*
Y51855D01*
X56528Y51846D01*
Y51833D01*
X56530Y51821D01*
X56532Y51804D01*
X56534Y51788D01*
X56541Y51748D01*
X56552Y51706D01*
X56568Y51661D01*
X56588Y51613D01*
Y51611D01*
X56592Y51608D01*
X56596Y51602D01*
X56599Y51593D01*
X56607Y51582D01*
X56614Y51571D01*
X56636Y51542D01*
X56661Y51513D01*
X56692Y51480D01*
X56730Y51449D01*
X56774Y51422D01*
X56776D01*
X56779Y51419D01*
X56787Y51417D01*
X56796Y51411D01*
X56807Y51406D01*
X56821Y51400D01*
X56836Y51395D01*
X56854Y51389D01*
X56894Y51377D01*
X56938Y51366D01*
X56987Y51358D01*
X57040Y51355D01*
X57049D01*
X57061Y51357D01*
X57076D01*
X57096Y51358D01*
X57118Y51362D01*
X57142Y51367D01*
X57169Y51373D01*
X57196Y51380D01*
X57227Y51389D01*
X57256Y51400D01*
X57287Y51415D01*
X57318Y51431D01*
X57349Y51449D01*
X57378Y51471D01*
X57406Y51497D01*
X57407Y51499D01*
X57411Y51504D01*
X57418Y51511D01*
X57427Y51522D01*
X57438Y51537D01*
X57451Y51553D01*
X57464Y51573D01*
X57478Y51595D01*
X57491Y51621D01*
X57504Y51648D01*
X57516Y51677D01*
X57528Y51710D01*
X57537Y51744D01*
X57544Y51781D01*
X57547Y51819D01*
X57549Y51859D01*
Y51861D01*
Y51868D01*
X57547Y51881D01*
Y51895D01*
X57546Y51915D01*
X57542Y51937D01*
X57537Y51961D01*
X57531Y51988D01*
X57522Y52017D01*
X57513Y52046D01*
X57500Y52077D01*
X57486Y52108D01*
X57469Y52139D01*
X57449Y52168D01*
X57425Y52199D01*
X57400Y52227D01*
X57398Y52228D01*
X57393Y52234D01*
X57385Y52241D01*
X57373Y52250D01*
X57358Y52261D01*
X57342Y52274D01*
X57322Y52287D01*
X57298Y52301D01*
X57273Y52314D01*
X57245Y52327D01*
X57214Y52339D01*
X57182Y52350D01*
X57147Y52361D01*
X57109Y52368D01*
X57071Y52372D01*
X57029Y52374D01*
D02*
G37*
G36*
X78028Y39812D02*
Y39022D01*
X79164D01*
X78028Y39812D01*
D02*
G37*
G36*
X6059Y21996D02*
X6057D01*
X6052D01*
X6043D01*
X6032Y21994D01*
X6017D01*
X6001Y21992D01*
X5981Y21990D01*
X5961Y21987D01*
X5913Y21980D01*
X5863Y21967D01*
X5808Y21950D01*
X5751Y21928D01*
X5750D01*
X5746Y21925D01*
X5737Y21921D01*
X5728Y21916D01*
X5715Y21908D01*
X5702Y21901D01*
X5670Y21879D01*
X5633Y21854D01*
X5597Y21821D01*
X5560Y21783D01*
X5529Y21741D01*
Y21739D01*
X5526Y21736D01*
X5522Y21728D01*
X5519Y21719D01*
X5513Y21708D01*
X5506Y21696D01*
X5499Y21681D01*
X5493Y21663D01*
X5478Y21625D01*
X5466Y21581D01*
X5458Y21534D01*
X5455Y21484D01*
Y21475D01*
X5457Y21464D01*
Y21452D01*
X5460Y21435D01*
X5464Y21415D01*
X5468Y21393D01*
X5475Y21368D01*
X5482Y21342D01*
X5493Y21315D01*
X5506Y21288D01*
X5520Y21259D01*
X5539Y21231D01*
X5560Y21202D01*
X5584Y21175D01*
X5611Y21148D01*
X5613Y21146D01*
X5619Y21142D01*
X5628Y21135D01*
X5640Y21126D01*
X5657Y21115D01*
X5675Y21102D01*
X5699Y21090D01*
X5724Y21077D01*
X5753Y21064D01*
X5786Y21051D01*
X5821Y21038D01*
X5859Y21028D01*
X5901Y21019D01*
X5944Y21011D01*
X5992Y21008D01*
X6041Y21006D01*
X6044D01*
X6052D01*
X6066D01*
X6084Y21008D01*
X6106Y21009D01*
X6132Y21013D01*
X6159Y21017D01*
X6190Y21024D01*
X6223Y21031D01*
X6256Y21040D01*
X6290Y21051D01*
X6325Y21064D01*
X6357Y21080D01*
X6390Y21100D01*
X6423Y21120D01*
X6452Y21146D01*
X6454Y21148D01*
X6459Y21151D01*
X6467Y21160D01*
X6476Y21171D01*
X6487Y21184D01*
X6499Y21201D01*
X6514Y21220D01*
X6529Y21240D01*
X6541Y21266D01*
X6556Y21292D01*
X6569Y21321D01*
X6580Y21352D01*
X6589Y21384D01*
X6596Y21419D01*
X6601Y21457D01*
X6603Y21495D01*
Y21504D01*
X6601Y21515D01*
Y21530D01*
X6598Y21548D01*
X6596Y21570D01*
X6590Y21592D01*
X6585Y21617D01*
X6576Y21645D01*
X6567Y21674D01*
X6554Y21703D01*
X6539Y21734D01*
X6523Y21763D01*
X6501Y21794D01*
X6480Y21823D01*
X6452Y21850D01*
X6450Y21852D01*
X6445Y21856D01*
X6436Y21863D01*
X6425Y21872D01*
X6410Y21885D01*
X6392Y21896D01*
X6370Y21910D01*
X6347Y21923D01*
X6319Y21936D01*
X6290Y21950D01*
X6257Y21961D01*
X6223Y21972D01*
X6185Y21983D01*
X6145Y21990D01*
X6103Y21994D01*
X6059Y21996D01*
D02*
G37*
G36*
X47947Y62040D02*
X47152D01*
Y61209D01*
X47905D01*
X47923Y61211D01*
X47947D01*
X47971Y61212D01*
X47998Y61214D01*
X48055Y61220D01*
X48115Y61229D01*
X48173Y61240D01*
X48198Y61247D01*
X48224Y61254D01*
X48226D01*
X48229Y61256D01*
X48237Y61260D01*
X48246Y61263D01*
X48257Y61269D01*
X48267Y61274D01*
X48297Y61291D01*
X48329Y61312D01*
X48362Y61338D01*
X48393Y61369D01*
X48420Y61405D01*
Y61407D01*
X48424Y61411D01*
X48426Y61416D01*
X48431Y61423D01*
X48437Y61432D01*
X48442Y61445D01*
X48455Y61473D01*
X48466Y61505D01*
X48477Y61544D01*
X48484Y61585D01*
X48488Y61631D01*
Y61633D01*
Y61638D01*
Y61647D01*
X48486Y61660D01*
X48484Y61676D01*
X48480Y61693D01*
X48477Y61713D01*
X48471Y61735D01*
X48464Y61756D01*
X48455Y61780D01*
X48446Y61806D01*
X48433Y61829D01*
X48417Y61855D01*
X48400Y61878D01*
X48380Y61902D01*
X48357Y61924D01*
X48355Y61926D01*
X48351Y61929D01*
X48342Y61935D01*
X48333Y61942D01*
X48318Y61951D01*
X48300Y61960D01*
X48280Y61971D01*
X48257Y61982D01*
X48231Y61993D01*
X48200Y62004D01*
X48166Y62013D01*
X48129Y62022D01*
X48089Y62029D01*
X48046Y62035D01*
X47998Y62039D01*
X47947Y62040D01*
D02*
G37*
%LPD*%
D13*
X47869Y49576D02*
X53381D01*
Y46624D02*
Y49576D01*
X47869Y46624D02*
X53381D01*
X47869D02*
Y49576D01*
X76044Y55424D02*
X81556D01*
X76044D02*
Y58376D01*
X81556D01*
Y55424D02*
Y58376D01*
X71124Y46856D02*
X74076D01*
X71124Y41344D02*
Y46856D01*
Y41344D02*
X74076D01*
Y46856D01*
X9234Y12812D02*
Y26788D01*
X966Y12812D02*
X9234D01*
X966D02*
Y26788D01*
X9234D01*
X51676Y37719D02*
Y43231D01*
X48724Y37719D02*
X51676D01*
X48724D02*
Y43231D01*
X51676D01*
X84424Y58756D02*
X87376D01*
X84424Y53244D02*
Y58756D01*
Y53244D02*
X87376D01*
Y58756D01*
X1050Y32626D02*
Y43092D01*
X7350D01*
Y32626D02*
Y43092D01*
X1050Y32626D02*
X7350D01*
X5676Y26519D02*
Y32031D01*
X2724Y26519D02*
X5676D01*
X2724D02*
Y32031D01*
X5676D01*
X42752Y57843D02*
X46886D01*
Y55757D02*
Y57843D01*
X42752Y55757D02*
X46886D01*
X42752D02*
Y57843D01*
X42949Y20944D02*
X45902D01*
Y26456D01*
X42949D02*
X45902D01*
X42949Y20944D02*
Y26456D01*
M02*
