G04*
G04 #@! TF.GenerationSoftware,Altium Limited,Altium Designer,22.6.1 (34)*
G04*
G04 Layer_Color=65535*
%FSLAX25Y25*%
%MOIN*%
G70*
G04*
G04 #@! TF.SameCoordinates,96458179-A28E-47A4-AC93-062C7FCE65E1*
G04*
G04*
G04 #@! TF.FilePolarity,Positive*
G04*
G01*
G75*
%ADD10C,0.00984*%
%ADD11C,0.02362*%
%ADD12C,0.01000*%
%ADD13C,0.00787*%
%ADD14C,0.00600*%
%ADD15C,0.00200*%
D10*
X12315Y54948D02*
G03*
X12315Y54948I-492J0D01*
G01*
X60352Y38023D02*
G03*
X60352Y38023I-492J0D01*
G01*
X83015Y28140D02*
G03*
X83015Y28140I-492J0D01*
G01*
D11*
X21272Y48747D02*
G03*
X21272Y48747I-1181J0D01*
G01*
D12*
X82541Y38300D02*
G03*
X82541Y38300I-141J0D01*
G01*
D13*
X16154Y28669D02*
Y52684D01*
X40169Y28669D02*
Y52684D01*
X16154D02*
X40169D01*
X16154Y28669D02*
X40169D01*
X56380Y22990D02*
X58816Y25426D01*
X54153Y25217D02*
X56380Y22990D01*
X62574Y29184D02*
X65010Y31620D01*
X62783Y33847D02*
X65010Y31620D01*
X48558Y50561D02*
X52692D01*
X48558Y45639D02*
X52692D01*
X76120Y22990D02*
X78347Y25217D01*
X73684Y25426D02*
X76120Y22990D01*
X67490Y31620D02*
X69717Y33847D01*
X67490Y31620D02*
X69926Y29184D01*
X76733Y54439D02*
X80867D01*
X76733Y59361D02*
X80867D01*
X70139Y42033D02*
Y46167D01*
X75061Y42033D02*
Y46167D01*
X7954Y22064D02*
Y22261D01*
Y17339D02*
Y17536D01*
X2246Y22064D02*
Y22261D01*
Y17339D02*
Y17536D01*
X10317Y14288D02*
Y25312D01*
X-117Y14288D02*
Y25312D01*
X52661Y38408D02*
Y42542D01*
X47739Y38408D02*
Y42542D01*
X83439Y53933D02*
Y58067D01*
X88361Y53933D02*
Y58067D01*
X8531Y33020D02*
Y42698D01*
X-131Y33020D02*
Y42698D01*
X6661Y27208D02*
Y31342D01*
X1739Y27208D02*
Y31342D01*
X43579Y58867D02*
X46059D01*
X43579Y54733D02*
X46059D01*
X46886Y21633D02*
Y25767D01*
X41965Y21633D02*
Y25767D01*
D14*
X90631Y7950D02*
Y14579D01*
Y43621D02*
Y50250D01*
Y7950D02*
X115231D01*
Y50250D01*
X90631D02*
X115231D01*
D15*
X48834Y51700D02*
Y53700D01*
X49834D01*
X50167Y53367D01*
Y52700D01*
X49834Y52367D01*
X48834D01*
X49500D02*
X50167Y51700D01*
X50833Y53367D02*
X51166Y53700D01*
X51833D01*
X52166Y53367D01*
Y53033D01*
X51833Y52700D01*
X51500D01*
X51833D01*
X52166Y52367D01*
Y52034D01*
X51833Y51700D01*
X51166D01*
X50833Y52034D01*
X59967Y39400D02*
Y41400D01*
X60634Y40733D01*
X61300Y41400D01*
Y39400D01*
X61967Y41400D02*
Y39400D01*
X62967D01*
X63300Y39734D01*
Y41067D01*
X62967Y41400D01*
X61967D01*
X63966Y39400D02*
X64633D01*
X64299D01*
Y41400D01*
X63966Y41067D01*
X67167Y56400D02*
X68500D01*
Y56067D01*
X67167Y54734D01*
Y54400D01*
X68500D01*
X69166D02*
X69833D01*
X69500D01*
Y56400D01*
X69166Y56067D01*
X55766Y4300D02*
Y2300D01*
X54766D01*
X54433Y2633D01*
Y3300D01*
X54766Y3633D01*
X55766D01*
X53767Y4300D02*
Y2300D01*
X53100Y2967D01*
X52434Y2300D01*
Y4300D01*
M02*
