G04*
G04 #@! TF.GenerationSoftware,Altium Limited,Altium Designer,22.6.1 (34)*
G04*
G04 Layer_Color=32896*
%FSLAX25Y25*%
%MOIN*%
G70*
G04*
G04 #@! TF.SameCoordinates,96458179-A28E-47A4-AC93-062C7FCE65E1*
G04*
G04*
G04 #@! TF.FilePolarity,Positive*
G04*
G01*
G75*
%ADD13C,0.00787*%
D13*
X47869Y49576D02*
X53381D01*
Y46624D02*
Y49576D01*
X47869Y46624D02*
X53381D01*
X47869D02*
Y49576D01*
X76044Y55424D02*
X81556D01*
X76044D02*
Y58376D01*
X81556D01*
Y55424D02*
Y58376D01*
X71124Y46856D02*
X74076D01*
X71124Y41344D02*
Y46856D01*
Y41344D02*
X74076D01*
Y46856D01*
X9234Y12812D02*
Y26788D01*
X966Y12812D02*
X9234D01*
X966D02*
Y26788D01*
X9234D01*
X51676Y37719D02*
Y43231D01*
X48724Y37719D02*
X51676D01*
X48724D02*
Y43231D01*
X51676D01*
X84424Y58756D02*
X87376D01*
X84424Y53244D02*
Y58756D01*
Y53244D02*
X87376D01*
Y58756D01*
X1050Y32626D02*
Y43092D01*
X7350D01*
Y32626D02*
Y43092D01*
X1050Y32626D02*
X7350D01*
X5676Y26519D02*
Y32031D01*
X2724Y26519D02*
X5676D01*
X2724D02*
Y32031D01*
X5676D01*
X42752Y57843D02*
X46886D01*
Y55757D02*
Y57843D01*
X42752Y55757D02*
X46886D01*
X42752D02*
Y57843D01*
X42949Y20944D02*
X45902D01*
Y26456D01*
X42949D02*
X45902D01*
X42949Y20944D02*
Y26456D01*
M02*
