G04*
G04 #@! TF.GenerationSoftware,Altium Limited,Altium Designer,22.6.1 (34)*
G04*
G04 Layer_Color=32768*
%FSLAX25Y25*%
%MOIN*%
G70*
G04*
G04 #@! TF.SameCoordinates,96458179-A28E-47A4-AC93-062C7FCE65E1*
G04*
G04*
G04 #@! TF.FilePolarity,Positive*
G04*
G01*
G75*
%ADD14C,0.00600*%
%ADD53C,0.00394*%
%ADD55C,0.00197*%
G36*
X115731Y7418D02*
X115731D01*
Y7412D01*
X85000D01*
Y50777D01*
X85000D01*
Y50782D01*
X115731D01*
Y7418D01*
D02*
G37*
D14*
X85000Y7412D02*
X115731D01*
X85000D02*
Y50777D01*
X115731D01*
Y7412D02*
Y50777D01*
X85000Y50782D02*
X115731D01*
X85000Y7418D02*
Y50782D01*
Y7418D02*
X115731D01*
Y50782D01*
D53*
X55200Y54531D02*
Y58469D01*
X53231Y56500D02*
X57169D01*
X26193Y40676D02*
X30130D01*
X28161Y38708D02*
Y42645D01*
X56867Y28349D02*
X59651Y31133D01*
X56867D02*
X59651Y28349D01*
X72849D02*
X75633Y31133D01*
X72849D02*
X75633Y28349D01*
X80632Y47100D02*
X84569D01*
X82600Y45131D02*
Y49068D01*
D55*
X48507Y52366D02*
X61893D01*
X48507Y60634D02*
X61893D01*
Y52366D02*
Y60634D01*
X48507Y52366D02*
Y60634D01*
X8870Y21385D02*
Y59968D01*
X47453Y21385D02*
Y59968D01*
X8870D02*
X47453D01*
X8870Y21385D02*
X47453D01*
X45314Y31272D02*
X59791Y16796D01*
X56728Y42686D02*
X71204Y28209D01*
X59791Y16796D02*
X71204Y28209D01*
X45314Y31272D02*
X56728Y42686D01*
X75772D02*
X87186Y31272D01*
X61296Y28209D02*
X72709Y16796D01*
X87186Y31272D01*
X61296Y28209D02*
X75772Y42686D01*
X89293Y43163D02*
Y51037D01*
X75907Y43163D02*
Y51037D01*
Y43163D02*
X89293D01*
X75907Y51037D02*
X89293D01*
M02*
