G04*
G04 #@! TF.GenerationSoftware,Altium Limited,Altium Designer,22.6.1 (34)*
G04*
G04 Layer_Physical_Order=2*
G04 Layer_Color=16711680*
%FSLAX25Y25*%
%MOIN*%
G70*
G04*
G04 #@! TF.SameCoordinates,96458179-A28E-47A4-AC93-062C7FCE65E1*
G04*
G04*
G04 #@! TF.FilePolarity,Positive*
G04*
G01*
G75*
%ADD14C,0.00600*%
%ADD19R,0.11800X0.02800*%
%ADD20R,0.07900X0.04700*%
%ADD44C,0.01400*%
G04:AMPARAMS|DCode=46|XSize=63.78mil|YSize=123.62mil|CornerRadius=31.89mil|HoleSize=0mil|Usage=FLASHONLY|Rotation=180.000|XOffset=0mil|YOffset=0mil|HoleType=Round|Shape=RoundedRectangle|*
%AMROUNDEDRECTD46*
21,1,0.06378,0.05984,0,0,180.0*
21,1,0.00000,0.12362,0,0,180.0*
1,1,0.06378,0.00000,0.02992*
1,1,0.06378,0.00000,0.02992*
1,1,0.06378,0.00000,-0.02992*
1,1,0.06378,0.00000,-0.02992*
%
%ADD46ROUNDEDRECTD46*%
%ADD47C,0.04800*%
%ADD48C,0.06000*%
%ADD49C,0.02362*%
%ADD50C,0.03098*%
G36*
X53355Y51182D02*
X53219Y50854D01*
Y50146D01*
X53257Y50054D01*
X50720Y47518D01*
X34800D01*
X34449Y47448D01*
X34151Y47249D01*
X31746Y44843D01*
X31654Y44881D01*
X30946D01*
X30291Y44610D01*
X29790Y44109D01*
X29519Y43454D01*
Y42746D01*
X29790Y42091D01*
X30291Y41590D01*
X30946Y41319D01*
X31257D01*
X31464Y40819D01*
X20732Y30087D01*
X20533Y29789D01*
X20463Y29438D01*
Y25383D01*
X20533Y25032D01*
X20732Y24735D01*
X20823Y24644D01*
Y21629D01*
X20732Y21591D01*
X20231Y21090D01*
X19960Y20435D01*
Y19727D01*
X20231Y19072D01*
X20732Y18571D01*
X21386Y18300D01*
X22095D01*
X22750Y18571D01*
X23251Y19072D01*
X23522Y19727D01*
Y20435D01*
X23251Y21090D01*
X22750Y21591D01*
X22658Y21629D01*
Y25024D01*
X22589Y25375D01*
X22390Y25673D01*
X22299Y25764D01*
Y26952D01*
X22799Y27195D01*
X23300Y26987D01*
X24009D01*
X24663Y27258D01*
X25164Y27759D01*
X25435Y28414D01*
Y29122D01*
X25164Y29777D01*
X25095Y29847D01*
X33602Y38354D01*
X34026Y38071D01*
X34019Y38054D01*
Y37346D01*
X34057Y37254D01*
X28588Y31786D01*
X28508Y31665D01*
X27891Y31410D01*
X27390Y30909D01*
X27119Y30254D01*
Y29546D01*
X27390Y28891D01*
X27891Y28390D01*
X28546Y28119D01*
X29254D01*
X29909Y28390D01*
X30410Y28891D01*
X30681Y29546D01*
Y30254D01*
X30410Y30909D01*
X30358Y30961D01*
X35354Y35957D01*
X35446Y35919D01*
X36154D01*
X36287Y35457D01*
X35691Y35210D01*
X35190Y34709D01*
X34919Y34054D01*
Y33346D01*
X35190Y32691D01*
X35691Y32190D01*
X36346Y31919D01*
X37054D01*
X37709Y32190D01*
X38210Y32691D01*
X38481Y33346D01*
Y33982D01*
X51593D01*
X52972Y32603D01*
Y32242D01*
X53243Y31588D01*
X53745Y31087D01*
X53772Y31075D01*
X53672Y30575D01*
X41702D01*
X41351Y30505D01*
X41054Y30307D01*
X37496Y26749D01*
X37496Y26749D01*
X28125Y17378D01*
X27693Y17411D01*
X27408Y17860D01*
X27484Y18044D01*
Y18752D01*
X27339Y19104D01*
X35117Y26882D01*
X35591D01*
X36246Y27153D01*
X36747Y27654D01*
X37018Y28309D01*
Y29017D01*
X36747Y29672D01*
X36246Y30173D01*
X35591Y30444D01*
X34883D01*
X34228Y30173D01*
X33727Y29672D01*
X33456Y29017D01*
Y28309D01*
X33600Y27961D01*
X25819Y20179D01*
X25349D01*
X24694Y19908D01*
X24193Y19407D01*
X23922Y18752D01*
Y18044D01*
X24055Y17722D01*
X23721Y17222D01*
X19904D01*
X19553Y17152D01*
X19255Y16953D01*
X17600Y15298D01*
X13849Y19048D01*
X13954Y19300D01*
X12300D01*
Y17646D01*
X12552Y17751D01*
X13864Y16438D01*
X13605Y15990D01*
X13195Y16100D01*
X12405D01*
X11642Y15896D01*
X10958Y15501D01*
X10399Y14942D01*
X10118Y14454D01*
X9618Y14588D01*
Y18191D01*
X10118Y18398D01*
X10565Y17951D01*
X11300Y17646D01*
Y19800D01*
Y21954D01*
X10565Y21649D01*
X10118Y21202D01*
X9618Y21409D01*
Y26720D01*
X10308Y27410D01*
X10732Y27127D01*
X10619Y26854D01*
Y26146D01*
X10890Y25491D01*
X11391Y24990D01*
X12046Y24719D01*
X12754D01*
X13409Y24990D01*
X13910Y25491D01*
X13948Y25582D01*
X17530D01*
X17881Y25652D01*
X18179Y25851D01*
X19630Y27303D01*
X19829Y27600D01*
X19899Y27951D01*
Y31497D01*
X19829Y31848D01*
X19630Y32146D01*
X19218Y32558D01*
Y36452D01*
X19309Y36490D01*
X19810Y36991D01*
X20081Y37646D01*
Y38354D01*
X19810Y39009D01*
X19309Y39510D01*
X18654Y39781D01*
X17946D01*
X17291Y39510D01*
X16790Y39009D01*
X16519Y38354D01*
Y37646D01*
X16790Y36991D01*
X17291Y36490D01*
X17382Y36452D01*
Y32178D01*
X17429Y31943D01*
X17391Y31844D01*
X17224Y31614D01*
X17082Y31481D01*
X16546D01*
X15891Y31210D01*
X15390Y30709D01*
X15352Y30618D01*
X11300D01*
X10949Y30548D01*
X10651Y30349D01*
X8051Y27749D01*
X7852Y27451D01*
X7782Y27100D01*
Y12748D01*
X7691Y12710D01*
X7190Y12209D01*
X6919Y11554D01*
Y10846D01*
X7147Y10296D01*
X6723Y10013D01*
X2118Y14618D01*
Y45284D01*
X2618Y45491D01*
X2889Y45219D01*
X3711Y44745D01*
X4626Y44500D01*
X5574D01*
X6489Y44745D01*
X7310Y45219D01*
X7981Y45890D01*
X8455Y46710D01*
X8581Y47182D01*
X12757D01*
X13108Y47252D01*
X13406Y47451D01*
X15272Y49318D01*
X15862Y49200D01*
X15990Y48891D01*
X16491Y48390D01*
X16582Y48352D01*
Y45101D01*
X16652Y44750D01*
X16851Y44452D01*
X22078Y39226D01*
X22040Y39134D01*
Y38426D01*
X22311Y37771D01*
X22812Y37270D01*
X23467Y36999D01*
X24176D01*
X24830Y37270D01*
X25331Y37771D01*
X25602Y38426D01*
Y39134D01*
X25331Y39789D01*
X24830Y40290D01*
X24176Y40561D01*
X23467D01*
X23376Y40523D01*
X18418Y45481D01*
Y48352D01*
X18509Y48390D01*
X19010Y48891D01*
X19208Y49369D01*
X19743Y49540D01*
X22222Y47062D01*
X22219Y47054D01*
Y46346D01*
X22490Y45691D01*
X22991Y45190D01*
X23646Y44919D01*
X24354D01*
X25009Y45190D01*
X25510Y45691D01*
X25781Y46346D01*
Y47054D01*
X25510Y47709D01*
X25195Y48024D01*
X25402Y48524D01*
X38241D01*
X38593Y48594D01*
X38890Y48793D01*
X41780Y51682D01*
X53021D01*
X53355Y51182D01*
D02*
G37*
G36*
X82051Y29382D02*
X81791Y29275D01*
X81290Y28774D01*
X81019Y28119D01*
Y27411D01*
X81194Y26987D01*
X77551Y23344D01*
X77281Y23317D01*
X75709Y24888D01*
X75412Y25087D01*
X75061Y25157D01*
X67283D01*
X67076Y25657D01*
X67410Y25991D01*
X67681Y26646D01*
Y27354D01*
X67410Y28009D01*
X66909Y28510D01*
X66254Y28781D01*
X65546D01*
X64891Y28510D01*
X64707Y28326D01*
X61300D01*
X60793Y28225D01*
X60363Y27937D01*
X58507Y26081D01*
X58246D01*
X57591Y25810D01*
X57233Y25452D01*
X56853Y25832D01*
X56117Y26136D01*
Y23983D01*
X55617D01*
Y23483D01*
X53464D01*
X53699Y22914D01*
X53341Y22521D01*
X52954Y22681D01*
X52246D01*
X51591Y22410D01*
X51090Y21909D01*
X51043Y21796D01*
X48236Y21757D01*
X48140Y21947D01*
X48081Y22255D01*
X48517Y22691D01*
X48788Y23346D01*
Y23550D01*
X49204Y23828D01*
X49400Y23746D01*
Y25900D01*
Y28054D01*
X48665Y27749D01*
X48051Y27136D01*
X48002Y27018D01*
X41013D01*
X40822Y27480D01*
X42083Y28740D01*
X58458D01*
X58809Y28810D01*
X59106Y29009D01*
X59980Y29882D01*
X74746D01*
X75000Y29832D01*
X75254Y29882D01*
X81951D01*
X82051Y29382D01*
D02*
G37*
G36*
X70251Y37751D02*
X70549Y37552D01*
X70900Y37482D01*
X71833D01*
X71871Y37391D01*
X72372Y36890D01*
X73027Y36619D01*
X73735D01*
X74390Y36890D01*
X74891Y37391D01*
X75162Y38046D01*
Y38479D01*
X75662Y38686D01*
X80286Y34063D01*
X80716Y33775D01*
X81223Y33674D01*
X83007D01*
X83191Y33490D01*
X83846Y33219D01*
X84554D01*
X84900Y33362D01*
X85400Y33028D01*
Y33000D01*
X97782D01*
Y31494D01*
X92400D01*
Y29094D01*
X91900D01*
Y28594D01*
X85000D01*
Y28414D01*
X84500Y28315D01*
X84310Y28774D01*
X83809Y29275D01*
X83549Y29382D01*
X83649Y29882D01*
X85000D01*
Y29594D01*
X91400D01*
Y31494D01*
X86275D01*
X86046Y31648D01*
X85694Y31718D01*
X75330D01*
X70498Y36549D01*
X70201Y36748D01*
X69849Y36818D01*
X66492D01*
X66393Y37318D01*
X66809Y37490D01*
X67310Y37991D01*
X67581Y38646D01*
Y39354D01*
X67310Y40009D01*
X67680Y40322D01*
X70251Y37751D01*
D02*
G37*
%LPC*%
G36*
X12300Y21954D02*
Y20300D01*
X13954D01*
X13649Y21035D01*
X13036Y21649D01*
X12300Y21954D01*
D02*
G37*
G36*
X50400Y28054D02*
Y25900D01*
Y23746D01*
X51135Y24051D01*
X51749Y24665D01*
X51881Y24982D01*
X53162D01*
X53493Y24554D01*
X53464Y24483D01*
X55117D01*
Y26136D01*
X54866Y26032D01*
X54349Y26549D01*
X54051Y26748D01*
X53700Y26818D01*
X51881D01*
X51749Y27136D01*
X51135Y27749D01*
X50400Y28054D01*
D02*
G37*
%LPD*%
D14*
X70900Y38400D02*
X73381D01*
X75061Y24239D02*
X78200Y21100D01*
X61939Y24239D02*
X75061D01*
X78200Y22695D02*
X82800Y27295D01*
X85311Y21100D02*
X87400Y23189D01*
X78200Y21100D02*
X85311D01*
X78200D02*
Y22695D01*
X84000Y23500D02*
Y24300D01*
X86400Y26700D01*
X87400Y23189D02*
X91900D01*
X11800Y19800D02*
X17800Y13800D01*
X59600Y30800D02*
X85694D01*
X69849Y35900D02*
X75000Y30749D01*
X82800Y27295D02*
Y27765D01*
X86400Y26700D02*
X98600D01*
X85694Y30800D02*
X87400Y29094D01*
X81798Y38300D02*
X81798Y38300D01*
X92282D01*
X71731Y47918D02*
X81350Y38300D01*
X81798D01*
X92282Y38300D02*
X95582Y35000D01*
X98700D01*
X99895Y39805D02*
X106300Y33400D01*
X98700Y26800D02*
Y35000D01*
X89746Y40905D02*
X91900D01*
X106300Y31300D02*
Y33400D01*
X93000Y39805D02*
X99895D01*
X18300Y32178D02*
Y38000D01*
Y32178D02*
X18981Y31497D01*
X21051Y51271D02*
X22880Y49441D01*
X18022Y54300D02*
X21051Y51271D01*
X11550Y54300D02*
X18022D01*
X21051Y51271D02*
Y51271D01*
X17500Y45101D02*
Y49900D01*
X18600Y51981D02*
X23881Y46700D01*
X12757Y48100D02*
X16638Y51981D01*
X5100Y48100D02*
X12757D01*
X16638Y51981D02*
X18600D01*
X17500Y45101D02*
X23700Y38901D01*
Y38800D02*
Y38901D01*
X23881Y46700D02*
X24000D01*
X51973Y34900D02*
X54277Y32597D01*
X36700Y33700D02*
X36733D01*
X37933Y34900D02*
X51973D01*
X36733Y33700D02*
X37933Y34900D01*
X54277Y32597D02*
X54753D01*
X29237Y30237D02*
Y31137D01*
X35800Y37700D01*
Y37700D01*
X28900Y29900D02*
X29237Y30237D01*
X31300Y43100D02*
X34800Y46600D01*
X51100D01*
X28216Y52293D02*
X28693D01*
X26565Y50642D02*
X28216Y52293D01*
X76657Y49400D02*
X101400D01*
X71057Y55000D02*
X76657Y49400D01*
X53700Y25900D02*
X55617Y23983D01*
X49900Y25900D02*
X53700D01*
X38145Y26100D02*
X49700D01*
X49900Y25900D01*
X58600Y20900D02*
X61939Y24239D01*
X52600Y20900D02*
X58600D01*
X25300Y9100D02*
Y13997D01*
X28349Y16304D02*
X38145Y26100D01*
X25300Y13997D02*
X26407Y15104D01*
X25703Y18766D02*
X35237Y28300D01*
X25703Y18398D02*
Y18766D01*
X17800Y14200D02*
X19904Y16304D01*
X22800Y6600D02*
X25300Y9100D01*
X19904Y16304D02*
X28349D01*
X26407Y15104D02*
X29021D01*
X20300Y5000D02*
Y9000D01*
X20400Y9100D01*
X20300Y5000D02*
X23081Y2219D01*
X33419D02*
X36100Y4900D01*
X23081Y2219D02*
X33419D01*
X22800Y9200D02*
Y11600D01*
X20400Y9100D02*
X22700D01*
X22800Y9200D01*
X17800Y13800D02*
Y14200D01*
X29021Y15104D02*
X37617Y23700D01*
X62900Y35900D02*
X69849D01*
X21741Y20081D02*
Y25024D01*
X21381Y25383D02*
X21741Y25024D01*
X21381Y25383D02*
Y29438D01*
X17800Y11600D02*
Y13800D01*
X30763Y4637D02*
X31100Y4300D01*
X27800Y6600D02*
X29763Y4637D01*
X30763D01*
X50344Y58100D02*
X68400D01*
X49250Y59194D02*
X50344Y58100D01*
X31672Y59194D02*
X49250D01*
X25260Y52783D02*
X31672Y59194D01*
X31800Y52300D02*
Y52755D01*
X34045Y55000D01*
X24459Y50642D02*
X26565D01*
X17200Y57900D02*
X24459Y50642D01*
X22880Y49441D02*
X38241D01*
X41400Y52600D01*
X36900Y52200D02*
X38500Y53800D01*
X68743D01*
X98600Y26700D02*
X98700Y26800D01*
X91900Y40905D02*
X93000Y39805D01*
X34045Y55000D02*
X71057D01*
X41400Y52600D02*
X56700D01*
X36882Y20682D02*
X38318D01*
X41100Y17900D01*
X38378Y20703D02*
X52600Y20900D01*
X27800Y11600D02*
X36840Y20640D01*
X11300Y29700D02*
X16900D01*
X8700Y27100D02*
X11300Y29700D01*
X18981Y27951D02*
Y31497D01*
X17530Y26500D02*
X18981Y27951D01*
X21381Y29438D02*
X37143Y45200D01*
X23654Y28768D02*
X23991Y29105D01*
Y30042D01*
X52587Y45200D02*
X54791Y47404D01*
X54847D01*
X37143Y45200D02*
X52587D01*
X51100Y46600D02*
X55000Y50500D01*
X35237Y28300D02*
Y28663D01*
X23991Y30042D02*
X37782Y43832D01*
X53256D01*
X54363Y43963D02*
X54700Y44300D01*
X53256Y43832D02*
X53386Y43963D01*
X54363D01*
X71731Y47918D02*
Y50812D01*
X56700Y52600D02*
X70900Y38400D01*
X58458Y29658D02*
X59600Y30800D01*
X62581Y35581D02*
X62900Y35900D01*
X63004Y33100D02*
X63011Y33106D01*
X41702Y29658D02*
X58458D01*
X81735Y43665D02*
X81735D01*
X68743Y53800D02*
X71731Y50812D01*
X69650Y49764D02*
Y49946D01*
X87400Y29094D02*
X91900D01*
X38145Y26100D02*
X41702Y29658D01*
X12400Y26500D02*
X17530D01*
X37617Y23700D02*
X47007D01*
X17800Y6600D02*
Y8700D01*
X17700Y8800D02*
X17800Y8700D01*
X6638Y8800D02*
X17700D01*
X1200Y14238D02*
X6638Y8800D01*
X1200Y14238D02*
Y50700D01*
X2500Y52000D01*
X7500D01*
X9000Y53500D01*
Y56250D01*
X10650Y57900D01*
X17200D01*
X8700Y11200D02*
Y27100D01*
D19*
X91900Y17283D02*
D03*
Y23189D02*
D03*
Y29094D02*
D03*
Y35000D02*
D03*
Y40905D02*
D03*
D20*
X107262Y12362D02*
D03*
Y45827D02*
D03*
D44*
X72246Y43977D02*
X81223Y35000D01*
X70470Y43977D02*
X72246D01*
X81223Y35000D02*
X84200D01*
X98000Y44500D02*
X103228Y39272D01*
X85560Y44500D02*
X98000D01*
X83360Y42300D02*
X85560Y44500D01*
X103228Y39272D02*
X103372D01*
X61300Y27000D02*
X65884D01*
X58600Y24300D02*
X61300Y27000D01*
X80742Y44657D02*
X81735Y43665D01*
X77935Y44657D02*
X80742D01*
X73819Y48774D02*
X77935Y44657D01*
X91900Y17283D02*
X92600Y17983D01*
X98630D01*
X103584Y22937D01*
Y26516D01*
X103400Y26700D02*
X103584Y26516D01*
X83100Y42300D02*
X83360D01*
X69700Y33106D02*
X69750Y33056D01*
X63011Y33106D02*
X69700D01*
X60500Y33100D02*
X63004D01*
X60100Y33500D02*
Y37200D01*
Y33500D02*
X60500Y33100D01*
X81735Y43665D02*
X83100Y42300D01*
X69650Y44798D02*
Y49764D01*
Y44798D02*
X70470Y43977D01*
X61900Y39000D02*
X65800D01*
X60100Y37200D02*
X61900Y39000D01*
X73600Y55400D02*
X73600Y55400D01*
X78960D01*
X81260Y53100D02*
X81300D01*
X78960Y55400D02*
X81260Y53100D01*
X65884Y27000D02*
X65892Y26992D01*
D46*
X51143Y12100D02*
D03*
X81457D02*
D03*
D47*
X12800Y13100D02*
D03*
Y5100D02*
D03*
X32800Y9100D02*
D03*
D48*
X5100Y48100D02*
D03*
Y55974D02*
D03*
D49*
X73381Y38400D02*
D03*
X84000Y23500D02*
D03*
X82800Y27765D02*
D03*
X18300Y38000D02*
D03*
X17500Y49900D02*
D03*
X24000Y46700D02*
D03*
X36700Y33700D02*
D03*
X35800Y37700D02*
D03*
X23821Y38780D02*
D03*
X31300Y43100D02*
D03*
X28693Y52293D02*
D03*
X103372Y39272D02*
D03*
X106300Y31300D02*
D03*
X55617Y23983D02*
D03*
X49900Y25900D02*
D03*
X58600Y24300D02*
D03*
X36100Y4900D02*
D03*
X25703Y18398D02*
D03*
X21741Y20081D02*
D03*
X31100Y4300D02*
D03*
X68400Y58100D02*
D03*
X31800Y52300D02*
D03*
X25260Y52783D02*
D03*
X36900Y52200D02*
D03*
X16900Y29700D02*
D03*
X23654Y28768D02*
D03*
X35237Y28663D02*
D03*
X28900Y29900D02*
D03*
X54847Y47404D02*
D03*
X54700Y44300D02*
D03*
X103400Y26700D02*
D03*
X101400Y49400D02*
D03*
X84200Y35000D02*
D03*
X69750Y33056D02*
D03*
X62581Y35581D02*
D03*
X83100Y42300D02*
D03*
X55000Y50500D02*
D03*
X73819Y48774D02*
D03*
X54753Y32597D02*
D03*
X81300Y53100D02*
D03*
X12400Y26500D02*
D03*
X69650Y49946D02*
D03*
X73600Y55400D02*
D03*
X65900Y27000D02*
D03*
X52600Y20900D02*
D03*
X41100Y17900D02*
D03*
X47007Y23700D02*
D03*
X65800Y39000D02*
D03*
X11550Y54300D02*
D03*
X8700Y11200D02*
D03*
X11800Y19800D02*
D03*
D50*
X17800Y6600D02*
D03*
Y11600D02*
D03*
X22800D02*
D03*
Y6600D02*
D03*
X27800Y11600D02*
D03*
Y6600D02*
D03*
M02*
