G04*
G04 #@! TF.GenerationSoftware,Altium Limited,Altium Designer,22.6.1 (34)*
G04*
G04 Layer_Color=8388736*
%FSLAX25Y25*%
%MOIN*%
G70*
G04*
G04 #@! TF.SameCoordinates,96458179-A28E-47A4-AC93-062C7FCE65E1*
G04*
G04*
G04 #@! TF.FilePolarity,Positive*
G04*
G01*
G75*
%ADD13C,0.00787*%
D13*
X48558Y49183D02*
X52692D01*
Y47017D02*
Y49183D01*
X48558Y47017D02*
X52692D01*
X48558D02*
Y49183D01*
X76733Y55817D02*
X80867D01*
X76733D02*
Y57983D01*
X80867D01*
Y55817D02*
Y57983D01*
X71517Y46167D02*
X73683D01*
X71517Y42033D02*
Y46167D01*
Y42033D02*
X73683D01*
Y46167D01*
X7954Y13205D02*
Y26394D01*
X2246Y13205D02*
X7954D01*
X2246D02*
Y26394D01*
X7954D01*
X51283Y38408D02*
Y42542D01*
X49117Y38408D02*
X51283D01*
X49117D02*
Y42542D01*
X51283D01*
X84817Y58067D02*
X86983D01*
X84817Y53933D02*
Y58067D01*
Y53933D02*
X86983D01*
Y58067D01*
X1739Y33922D02*
Y41796D01*
X6661D01*
Y33922D02*
Y41796D01*
X1739Y33922D02*
X6661D01*
X5283Y27208D02*
Y31342D01*
X3117Y27208D02*
X5283D01*
X3117D02*
Y31342D01*
X5283D01*
X43579Y57450D02*
X46059D01*
Y56150D02*
Y57450D01*
X43579Y56150D02*
X46059D01*
X43579D02*
Y57450D01*
X43343Y21633D02*
X45508D01*
Y25767D01*
X43343D02*
X45508D01*
X43343Y21633D02*
Y25767D01*
M02*
