G04*
G04 #@! TF.GenerationSoftware,Altium Limited,Altium Designer,22.6.1 (34)*
G04*
G04 Layer_Color=16711935*
%FSLAX25Y25*%
%MOIN*%
G70*
G04*
G04 #@! TF.SameCoordinates,96458179-A28E-47A4-AC93-062C7FCE65E1*
G04*
G04*
G04 #@! TF.FilePolarity,Negative*
G04*
G01*
G75*
%ADD19R,0.11800X0.02800*%
%ADD35R,0.08700X0.05500*%
%ADD39C,0.00800*%
G04:AMPARAMS|DCode=40|XSize=71.78mil|YSize=131.62mil|CornerRadius=35.89mil|HoleSize=0mil|Usage=FLASHONLY|Rotation=180.000|XOffset=0mil|YOffset=0mil|HoleType=Round|Shape=RoundedRectangle|*
%AMROUNDEDRECTD40*
21,1,0.07178,0.05984,0,0,180.0*
21,1,0.00000,0.13162,0,0,180.0*
1,1,0.07178,0.00000,0.02992*
1,1,0.07178,0.00000,0.02992*
1,1,0.07178,0.00000,-0.02992*
1,1,0.07178,0.00000,-0.02992*
%
%ADD40ROUNDEDRECTD40*%
%ADD41C,0.05600*%
%ADD42C,0.06800*%
%ADD51C,0.03898*%
D19*
X91900Y17283D02*
D03*
Y23189D02*
D03*
Y29094D02*
D03*
Y35000D02*
D03*
Y40905D02*
D03*
D35*
X107262Y12362D02*
D03*
Y45827D02*
D03*
D39*
X66300Y12100D02*
D03*
D40*
X51143D02*
D03*
X81457D02*
D03*
D41*
X12800Y13100D02*
D03*
Y5100D02*
D03*
X32800Y9100D02*
D03*
D42*
X5100Y48100D02*
D03*
Y55974D02*
D03*
D51*
X17800Y6600D02*
D03*
Y11600D02*
D03*
X22800D02*
D03*
Y6600D02*
D03*
X27800Y11600D02*
D03*
Y6600D02*
D03*
M02*
